G04 #@! TF.GenerationSoftware,KiCad,Pcbnew,no-vcs-found-c6d0075~61~ubuntu17.10.1*
G04 #@! TF.CreationDate,2018-02-05T23:49:34+03:00*
G04 #@! TF.ProjectId,tsa5512-pll,747361353531322D706C6C2E6B696361,rev?*
G04 #@! TF.SameCoordinates,Original*
G04 #@! TF.FileFunction,Copper,L2,Bot,Signal*
G04 #@! TF.FilePolarity,Positive*
%FSLAX46Y46*%
G04 Gerber Fmt 4.6, Leading zero omitted, Abs format (unit mm)*
G04 Created by KiCad (PCBNEW no-vcs-found-c6d0075~61~ubuntu17.10.1) date Mon Feb  5 23:49:34 2018*
%MOMM*%
%LPD*%
G01*
G04 APERTURE LIST*
%ADD10C,1.500000*%
%ADD11R,1.500000X1.500000*%
%ADD12C,1.600000*%
%ADD13R,3.000000X3.000000*%
%ADD14R,1.600000X1.600000*%
%ADD15O,1.600000X1.600000*%
%ADD16C,2.000000*%
%ADD17O,3.000000X3.000000*%
%ADD18O,1.700000X1.700000*%
%ADD19R,1.700000X1.700000*%
%ADD20C,0.800000*%
%ADD21C,0.500000*%
G04 APERTURE END LIST*
D10*
X93726000Y-208534000D03*
X91186000Y-205994000D03*
D11*
X96266000Y-205994000D03*
D12*
X114056000Y-200914000D03*
D13*
X117856000Y-200914000D03*
X82296000Y-197739000D03*
D12*
X82296000Y-201539000D03*
X139712282Y-216512930D03*
D14*
X142212282Y-216512930D03*
D12*
X100066000Y-216789000D03*
D14*
X96266000Y-216789000D03*
X96266000Y-231394000D03*
D12*
X98766000Y-231394000D03*
D13*
X127762000Y-231775000D03*
D12*
X127762000Y-235575000D03*
D14*
X122527282Y-214884000D03*
D15*
X130147282Y-214884000D03*
X130147282Y-212344000D03*
D14*
X122527282Y-212344000D03*
D16*
X72390000Y-224028000D03*
X67510000Y-224028000D03*
D17*
X74676000Y-205359000D03*
D18*
X74676000Y-202819000D03*
X74676000Y-200279000D03*
D13*
X74676000Y-197739000D03*
X76581000Y-235204000D03*
D18*
X79121000Y-235204000D03*
X81661000Y-235204000D03*
X84201000Y-235204000D03*
D19*
X104521000Y-200914000D03*
D18*
X104521000Y-203454000D03*
X104521000Y-205994000D03*
X104521000Y-208534000D03*
D20*
X138049000Y-203835000D03*
X134747000Y-207137000D03*
X124968000Y-208280000D03*
X120015000Y-208280000D03*
X95504000Y-195453000D03*
X95504000Y-200406000D03*
X91313000Y-215138000D03*
X91313000Y-210820000D03*
X104521000Y-213868000D03*
X104521000Y-210439000D03*
X99187000Y-212090000D03*
X93599000Y-212090000D03*
X96266000Y-220472000D03*
X96266000Y-227584000D03*
D21*
X134747000Y-207137000D02*
X138049000Y-203835000D01*
X120015000Y-208280000D02*
X124968000Y-208280000D01*
X95504000Y-200406000D02*
X95504000Y-195453000D01*
X91313000Y-210820000D02*
X91313000Y-215138000D01*
X104521000Y-210439000D02*
X104521000Y-213868000D01*
X93599000Y-212090000D02*
X99187000Y-212090000D01*
X96266000Y-220472000D02*
X96266000Y-227584000D01*
M02*
