M48
;DRILL file {KiCad no-vcs-found-c6d0075~61~ubuntu17.10.1} date Mon Feb  5 23:49:37 2018
;FORMAT={-:-/ absolute / inch / decimal}
FMAT,2
INCH,TZ
T1C0.0157
T2C0.0315
T3C0.0394
T4C0.0591
%
G90
G05
M72
T1
X3.595Y-8.3
X3.595Y-8.47
X3.685Y-8.35
X3.76Y-7.695
X3.76Y-7.89
X3.79Y-8.68
X3.79Y-8.96
X3.905Y-8.35
X4.115Y-8.285
X4.115Y-8.42
X4.725Y-8.2
X4.92Y-8.2
X5.305Y-8.155
X5.435Y-8.025
T2
X5.03Y-9.2746
X3.79Y-9.11
X3.8884Y-9.11
X3.79Y-8.535
X3.9396Y-8.535
X3.59Y-8.11
X3.69Y-8.21
X3.79Y-8.11
X4.4904Y-7.91
X3.24Y-7.9346
X5.5005Y-8.5241
X5.5989Y-8.5241
X4.8239Y-8.46
X5.1239Y-8.46
X4.8239Y-8.36
X5.1239Y-8.36
T3
X2.94Y-7.885
X2.94Y-7.985
X3.115Y-9.26
X3.215Y-9.26
X3.315Y-9.26
X2.6579Y-8.82
X2.85Y-8.82
X4.115Y-7.91
X4.115Y-8.01
X4.115Y-8.11
X4.115Y-8.21
T4
X3.24Y-7.785
X2.94Y-7.785
X2.94Y-8.085
X3.015Y-9.26
X5.03Y-9.125
X4.64Y-7.91
T0
M30
