G04 #@! TF.GenerationSoftware,KiCad,Pcbnew,no-vcs-found-c6d0075~61~ubuntu17.10.1*
G04 #@! TF.CreationDate,2018-02-05T23:49:34+03:00*
G04 #@! TF.ProjectId,tsa5512-pll,747361353531322D706C6C2E6B696361,rev?*
G04 #@! TF.SameCoordinates,Original*
G04 #@! TF.FileFunction,Soldermask,Top*
G04 #@! TF.FilePolarity,Negative*
%FSLAX46Y46*%
G04 Gerber Fmt 4.6, Leading zero omitted, Abs format (unit mm)*
G04 Created by KiCad (PCBNEW no-vcs-found-c6d0075~61~ubuntu17.10.1) date Mon Feb  5 23:49:34 2018*
%MOMM*%
%LPD*%
G01*
G04 APERTURE LIST*
%ADD10C,1.900000*%
%ADD11R,1.900000X1.900000*%
%ADD12C,2.000000*%
%ADD13R,3.400000X3.400000*%
%ADD14R,2.000000X2.000000*%
%ADD15R,1.645000X2.200000*%
%ADD16R,2.200000X1.645000*%
%ADD17O,2.000000X2.000000*%
%ADD18R,1.900000X2.600000*%
%ADD19R,0.850000X1.900000*%
%ADD20R,7.400000X1.900000*%
%ADD21R,1.900000X7.400000*%
%ADD22R,10.400000X1.900000*%
%ADD23R,1.900000X1.000000*%
%ADD24C,2.400000*%
%ADD25O,3.400000X3.400000*%
%ADD26O,2.100000X2.100000*%
%ADD27R,2.100000X2.100000*%
%ADD28R,4.400000X4.400000*%
G04 APERTURE END LIST*
D10*
X93726000Y-208534000D03*
X91186000Y-205994000D03*
D11*
X96266000Y-205994000D03*
D10*
X71501000Y-230124000D03*
X75311000Y-230124000D03*
D12*
X114056000Y-200914000D03*
D13*
X117856000Y-200914000D03*
X82296000Y-197739000D03*
D12*
X82296000Y-201539000D03*
X139712282Y-216512930D03*
D14*
X142212282Y-216512930D03*
D15*
X81397000Y-213360000D03*
X84582000Y-213360000D03*
X139349782Y-231752930D03*
X142534782Y-231752930D03*
D16*
X78105000Y-213487000D03*
X78105000Y-210302000D03*
D15*
X142534782Y-238737930D03*
X139349782Y-238737930D03*
X93101000Y-225044000D03*
X89916000Y-225044000D03*
X93101000Y-221869000D03*
X89916000Y-221869000D03*
D12*
X100066000Y-216789000D03*
D14*
X96266000Y-216789000D03*
X96266000Y-231394000D03*
D12*
X98766000Y-231394000D03*
D15*
X68765500Y-218948000D03*
X71950500Y-218948000D03*
D16*
X91821000Y-228854000D03*
X91821000Y-232039000D03*
X89281000Y-228844000D03*
X89281000Y-232029000D03*
D13*
X127762000Y-231775000D03*
D12*
X127762000Y-235575000D03*
D15*
X113627282Y-231752930D03*
X116812282Y-231752930D03*
X124216000Y-219837000D03*
X121031000Y-219837000D03*
X113401000Y-219837000D03*
X116586000Y-219837000D03*
D16*
X130147282Y-217782930D03*
X130147282Y-220967930D03*
X126746000Y-205623000D03*
X126746000Y-202438000D03*
D15*
X116812282Y-208257930D03*
X113627282Y-208257930D03*
D14*
X122527282Y-214884000D03*
D17*
X130147282Y-214884000D03*
X130147282Y-212344000D03*
D14*
X122527282Y-212344000D03*
D18*
X142262282Y-224767930D03*
X135862282Y-224767930D03*
D19*
X87346000Y-215519000D03*
X88646000Y-215519000D03*
X87996000Y-212859000D03*
D20*
X113757282Y-224767930D03*
D21*
X120557282Y-231567930D03*
D22*
X128757282Y-224767930D03*
D16*
X88011000Y-210449000D03*
X88011000Y-207264000D03*
D15*
X84201000Y-239649000D03*
X87386000Y-239649000D03*
X78163500Y-239649000D03*
X81348500Y-239649000D03*
X84582000Y-210312000D03*
X81397000Y-210312000D03*
D16*
X136497282Y-234292930D03*
X136497282Y-231107930D03*
X136497282Y-237145430D03*
X136497282Y-240330430D03*
X110871000Y-228567930D03*
X110871000Y-231752930D03*
D15*
X107061000Y-225044000D03*
X103876000Y-225044000D03*
X136271000Y-214884000D03*
X133086000Y-214884000D03*
D16*
X122555000Y-202428000D03*
X122555000Y-205613000D03*
D15*
X116812282Y-212702930D03*
X113627282Y-212702930D03*
D16*
X108966000Y-200904000D03*
X108966000Y-204089000D03*
D23*
X78111000Y-219329000D03*
X78111000Y-220599000D03*
X78111000Y-221869000D03*
X78111000Y-223139000D03*
X78111000Y-224409000D03*
X78111000Y-225679000D03*
X78111000Y-226949000D03*
X78111000Y-228219000D03*
X85211000Y-228219000D03*
X85211000Y-226949000D03*
X85211000Y-225679000D03*
X85211000Y-224409000D03*
X85211000Y-223139000D03*
X85211000Y-221869000D03*
X85211000Y-220599000D03*
X85211000Y-219329000D03*
D24*
X72390000Y-224028000D03*
X67510000Y-224028000D03*
D25*
X74676000Y-205359000D03*
D26*
X74676000Y-202819000D03*
X74676000Y-200279000D03*
D13*
X74676000Y-197739000D03*
X76581000Y-235204000D03*
D26*
X79121000Y-235204000D03*
X81661000Y-235204000D03*
X84201000Y-235204000D03*
D27*
X104521000Y-200914000D03*
D26*
X104521000Y-203454000D03*
X104521000Y-205994000D03*
X104521000Y-208534000D03*
D16*
X107061000Y-228531500D03*
X107061000Y-231716500D03*
D28*
X107061000Y-236474000D03*
D16*
X87376000Y-204411500D03*
X87376000Y-201226500D03*
D15*
X84958501Y-207426646D03*
X81773501Y-207426646D03*
M02*
