G04 #@! TF.GenerationSoftware,KiCad,Pcbnew,no-vcs-found-c6d0075~61~ubuntu17.10.1*
G04 #@! TF.CreationDate,2018-02-05T23:49:34+03:00*
G04 #@! TF.ProjectId,tsa5512-pll,747361353531322D706C6C2E6B696361,rev?*
G04 #@! TF.SameCoordinates,Original*
G04 #@! TF.FileFunction,Legend,Top*
G04 #@! TF.FilePolarity,Positive*
%FSLAX46Y46*%
G04 Gerber Fmt 4.6, Leading zero omitted, Abs format (unit mm)*
G04 Created by KiCad (PCBNEW no-vcs-found-c6d0075~61~ubuntu17.10.1) date Mon Feb  5 23:49:34 2018*
%MOMM*%
%LPD*%
G01*
G04 APERTURE LIST*
%ADD10C,0.120000*%
%ADD11C,0.150000*%
G04 APERTURE END LIST*
D10*
X95526000Y-204144000D02*
X91926000Y-204144000D01*
X96050184Y-204871205D02*
G75*
G03X95526000Y-204144000I-2324184J-1122795D01*
G01*
X96093199Y-207097842D02*
G75*
G02X94866000Y-208344000I-2367199J1103842D01*
G01*
X91370543Y-207092371D02*
G75*
G03X92616000Y-208344000I2355457J1098371D01*
G01*
X91401816Y-204871205D02*
G75*
G02X91926000Y-204144000I2324184J-1122795D01*
G01*
X72451000Y-230124000D02*
G75*
G03X72451000Y-230124000I-950000J0D01*
G01*
X76261000Y-230124000D02*
G75*
G03X76261000Y-230124000I-950000J0D01*
G01*
X119965698Y-203629000D02*
X119965698Y-202829000D01*
X120365698Y-203229000D02*
X119565698Y-203229000D01*
X111875000Y-201447000D02*
X111875000Y-200381000D01*
X111915000Y-201682000D02*
X111915000Y-200146000D01*
X111955000Y-201862000D02*
X111955000Y-199966000D01*
X111995000Y-202012000D02*
X111995000Y-199816000D01*
X112035000Y-202143000D02*
X112035000Y-199685000D01*
X112075000Y-202260000D02*
X112075000Y-199568000D01*
X112115000Y-202367000D02*
X112115000Y-199461000D01*
X112155000Y-202466000D02*
X112155000Y-199362000D01*
X112195000Y-202559000D02*
X112195000Y-199269000D01*
X112235000Y-202645000D02*
X112235000Y-199183000D01*
X112275000Y-202727000D02*
X112275000Y-199101000D01*
X112315000Y-202804000D02*
X112315000Y-199024000D01*
X112355000Y-202878000D02*
X112355000Y-198950000D01*
X112395000Y-202948000D02*
X112395000Y-198880000D01*
X112435000Y-203016000D02*
X112435000Y-198812000D01*
X112475000Y-203080000D02*
X112475000Y-198748000D01*
X112515000Y-203142000D02*
X112515000Y-198686000D01*
X112555000Y-203201000D02*
X112555000Y-198627000D01*
X112595000Y-203259000D02*
X112595000Y-198569000D01*
X112635000Y-203314000D02*
X112635000Y-198514000D01*
X112675000Y-203368000D02*
X112675000Y-198460000D01*
X112715000Y-203419000D02*
X112715000Y-198409000D01*
X112755000Y-203470000D02*
X112755000Y-198358000D01*
X112795000Y-203518000D02*
X112795000Y-198310000D01*
X112835000Y-203565000D02*
X112835000Y-198263000D01*
X112875000Y-203611000D02*
X112875000Y-198217000D01*
X112915000Y-203655000D02*
X112915000Y-198173000D01*
X112955000Y-203698000D02*
X112955000Y-198130000D01*
X112995000Y-203740000D02*
X112995000Y-198088000D01*
X113035000Y-199874000D02*
X113035000Y-198047000D01*
X113035000Y-203781000D02*
X113035000Y-201954000D01*
X113075000Y-199874000D02*
X113075000Y-198007000D01*
X113075000Y-203821000D02*
X113075000Y-201954000D01*
X113115000Y-199874000D02*
X113115000Y-197969000D01*
X113115000Y-203859000D02*
X113115000Y-201954000D01*
X113155000Y-199874000D02*
X113155000Y-197931000D01*
X113155000Y-203897000D02*
X113155000Y-201954000D01*
X113195000Y-199874000D02*
X113195000Y-197895000D01*
X113195000Y-203933000D02*
X113195000Y-201954000D01*
X113235000Y-199874000D02*
X113235000Y-197859000D01*
X113235000Y-203969000D02*
X113235000Y-201954000D01*
X113275000Y-199874000D02*
X113275000Y-197824000D01*
X113275000Y-204004000D02*
X113275000Y-201954000D01*
X113315000Y-199874000D02*
X113315000Y-197790000D01*
X113315000Y-204038000D02*
X113315000Y-201954000D01*
X113355000Y-199874000D02*
X113355000Y-197758000D01*
X113355000Y-204070000D02*
X113355000Y-201954000D01*
X113395000Y-199874000D02*
X113395000Y-197725000D01*
X113395000Y-204103000D02*
X113395000Y-201954000D01*
X113435000Y-199874000D02*
X113435000Y-197694000D01*
X113435000Y-204134000D02*
X113435000Y-201954000D01*
X113475000Y-199874000D02*
X113475000Y-197664000D01*
X113475000Y-204164000D02*
X113475000Y-201954000D01*
X113515000Y-199874000D02*
X113515000Y-197634000D01*
X113515000Y-204194000D02*
X113515000Y-201954000D01*
X113555000Y-199874000D02*
X113555000Y-197605000D01*
X113555000Y-204223000D02*
X113555000Y-201954000D01*
X113595000Y-199874000D02*
X113595000Y-197576000D01*
X113595000Y-204252000D02*
X113595000Y-201954000D01*
X113635000Y-199874000D02*
X113635000Y-197549000D01*
X113635000Y-204279000D02*
X113635000Y-201954000D01*
X113675000Y-199874000D02*
X113675000Y-197522000D01*
X113675000Y-204306000D02*
X113675000Y-201954000D01*
X113715000Y-199874000D02*
X113715000Y-197496000D01*
X113715000Y-204332000D02*
X113715000Y-201954000D01*
X113755000Y-199874000D02*
X113755000Y-197470000D01*
X113755000Y-204358000D02*
X113755000Y-201954000D01*
X113795000Y-199874000D02*
X113795000Y-197445000D01*
X113795000Y-204383000D02*
X113795000Y-201954000D01*
X113835000Y-199874000D02*
X113835000Y-197421000D01*
X113835000Y-204407000D02*
X113835000Y-201954000D01*
X113875000Y-199874000D02*
X113875000Y-197397000D01*
X113875000Y-204431000D02*
X113875000Y-201954000D01*
X113915000Y-199874000D02*
X113915000Y-197374000D01*
X113915000Y-204454000D02*
X113915000Y-201954000D01*
X113955000Y-199874000D02*
X113955000Y-197352000D01*
X113955000Y-204476000D02*
X113955000Y-201954000D01*
X113995000Y-199874000D02*
X113995000Y-197330000D01*
X113995000Y-204498000D02*
X113995000Y-201954000D01*
X114035000Y-199874000D02*
X114035000Y-197308000D01*
X114035000Y-204520000D02*
X114035000Y-201954000D01*
X114075000Y-199874000D02*
X114075000Y-197287000D01*
X114075000Y-204541000D02*
X114075000Y-201954000D01*
X114115000Y-199874000D02*
X114115000Y-197267000D01*
X114115000Y-204561000D02*
X114115000Y-201954000D01*
X114155000Y-199874000D02*
X114155000Y-197248000D01*
X114155000Y-204580000D02*
X114155000Y-201954000D01*
X114195000Y-199874000D02*
X114195000Y-197228000D01*
X114195000Y-204600000D02*
X114195000Y-201954000D01*
X114235000Y-199874000D02*
X114235000Y-197210000D01*
X114235000Y-204618000D02*
X114235000Y-201954000D01*
X114275000Y-199874000D02*
X114275000Y-197192000D01*
X114275000Y-204636000D02*
X114275000Y-201954000D01*
X114315000Y-199874000D02*
X114315000Y-197174000D01*
X114315000Y-204654000D02*
X114315000Y-201954000D01*
X114355000Y-199874000D02*
X114355000Y-197157000D01*
X114355000Y-204671000D02*
X114355000Y-201954000D01*
X114395000Y-199874000D02*
X114395000Y-197140000D01*
X114395000Y-204688000D02*
X114395000Y-201954000D01*
X114435000Y-199874000D02*
X114435000Y-197124000D01*
X114435000Y-204704000D02*
X114435000Y-201954000D01*
X114475000Y-199874000D02*
X114475000Y-197109000D01*
X114475000Y-204719000D02*
X114475000Y-201954000D01*
X114515000Y-199874000D02*
X114515000Y-197093000D01*
X114515000Y-204735000D02*
X114515000Y-201954000D01*
X114555000Y-199874000D02*
X114555000Y-197079000D01*
X114555000Y-204749000D02*
X114555000Y-201954000D01*
X114595000Y-199874000D02*
X114595000Y-197064000D01*
X114595000Y-204764000D02*
X114595000Y-201954000D01*
X114635000Y-199874000D02*
X114635000Y-197051000D01*
X114635000Y-204777000D02*
X114635000Y-201954000D01*
X114675000Y-199874000D02*
X114675000Y-197037000D01*
X114675000Y-204791000D02*
X114675000Y-201954000D01*
X114715000Y-199874000D02*
X114715000Y-197025000D01*
X114715000Y-204803000D02*
X114715000Y-201954000D01*
X114755000Y-199874000D02*
X114755000Y-197012000D01*
X114755000Y-204816000D02*
X114755000Y-201954000D01*
X114795000Y-199874000D02*
X114795000Y-197000000D01*
X114795000Y-204828000D02*
X114795000Y-201954000D01*
X114835000Y-199874000D02*
X114835000Y-196989000D01*
X114835000Y-204839000D02*
X114835000Y-201954000D01*
X114875000Y-199874000D02*
X114875000Y-196978000D01*
X114875000Y-204850000D02*
X114875000Y-201954000D01*
X114915000Y-199874000D02*
X114915000Y-196967000D01*
X114915000Y-204861000D02*
X114915000Y-201954000D01*
X114955000Y-199874000D02*
X114955000Y-196957000D01*
X114955000Y-204871000D02*
X114955000Y-201954000D01*
X114995000Y-199874000D02*
X114995000Y-196947000D01*
X114995000Y-204881000D02*
X114995000Y-201954000D01*
X115035000Y-199874000D02*
X115035000Y-196938000D01*
X115035000Y-204890000D02*
X115035000Y-201954000D01*
X115075000Y-199874000D02*
X115075000Y-196929000D01*
X115075000Y-204899000D02*
X115075000Y-201954000D01*
X115115000Y-204908000D02*
X115115000Y-196920000D01*
X115155000Y-204916000D02*
X115155000Y-196912000D01*
X115195000Y-204924000D02*
X115195000Y-196904000D01*
X115235000Y-204931000D02*
X115235000Y-196897000D01*
X115276000Y-204938000D02*
X115276000Y-196890000D01*
X115316000Y-204944000D02*
X115316000Y-196884000D01*
X115356000Y-204951000D02*
X115356000Y-196877000D01*
X115396000Y-204956000D02*
X115396000Y-196872000D01*
X115436000Y-204962000D02*
X115436000Y-196866000D01*
X115476000Y-204966000D02*
X115476000Y-196862000D01*
X115516000Y-204971000D02*
X115516000Y-196857000D01*
X115556000Y-204975000D02*
X115556000Y-196853000D01*
X115596000Y-204979000D02*
X115596000Y-196849000D01*
X115636000Y-204982000D02*
X115636000Y-196846000D01*
X115676000Y-204985000D02*
X115676000Y-196843000D01*
X115716000Y-204988000D02*
X115716000Y-196840000D01*
X115756000Y-204990000D02*
X115756000Y-196838000D01*
X115796000Y-204991000D02*
X115796000Y-196837000D01*
X115836000Y-204993000D02*
X115836000Y-196835000D01*
X115876000Y-204994000D02*
X115876000Y-196834000D01*
X115916000Y-204994000D02*
X115916000Y-196834000D01*
X115956000Y-204994000D02*
X115956000Y-196834000D01*
X120076000Y-200914000D02*
G75*
G03X120076000Y-200914000I-4120000J0D01*
G01*
X86416000Y-199639000D02*
G75*
G03X86416000Y-199639000I-4120000J0D01*
G01*
X86376000Y-199639000D02*
X78216000Y-199639000D01*
X86376000Y-199679000D02*
X78216000Y-199679000D01*
X86376000Y-199719000D02*
X78216000Y-199719000D01*
X86375000Y-199759000D02*
X78217000Y-199759000D01*
X86373000Y-199799000D02*
X78219000Y-199799000D01*
X86372000Y-199839000D02*
X78220000Y-199839000D01*
X86370000Y-199879000D02*
X78222000Y-199879000D01*
X86367000Y-199919000D02*
X78225000Y-199919000D01*
X86364000Y-199959000D02*
X78228000Y-199959000D01*
X86361000Y-199999000D02*
X78231000Y-199999000D01*
X86357000Y-200039000D02*
X78235000Y-200039000D01*
X86353000Y-200079000D02*
X78239000Y-200079000D01*
X86348000Y-200119000D02*
X78244000Y-200119000D01*
X86344000Y-200159000D02*
X78248000Y-200159000D01*
X86338000Y-200199000D02*
X78254000Y-200199000D01*
X86333000Y-200239000D02*
X78259000Y-200239000D01*
X86326000Y-200279000D02*
X78266000Y-200279000D01*
X86320000Y-200319000D02*
X78272000Y-200319000D01*
X86313000Y-200360000D02*
X78279000Y-200360000D01*
X86306000Y-200400000D02*
X78286000Y-200400000D01*
X86298000Y-200440000D02*
X78294000Y-200440000D01*
X86290000Y-200480000D02*
X78302000Y-200480000D01*
X86281000Y-200520000D02*
X83336000Y-200520000D01*
X81256000Y-200520000D02*
X78311000Y-200520000D01*
X86272000Y-200560000D02*
X83336000Y-200560000D01*
X81256000Y-200560000D02*
X78320000Y-200560000D01*
X86263000Y-200600000D02*
X83336000Y-200600000D01*
X81256000Y-200600000D02*
X78329000Y-200600000D01*
X86253000Y-200640000D02*
X83336000Y-200640000D01*
X81256000Y-200640000D02*
X78339000Y-200640000D01*
X86243000Y-200680000D02*
X83336000Y-200680000D01*
X81256000Y-200680000D02*
X78349000Y-200680000D01*
X86232000Y-200720000D02*
X83336000Y-200720000D01*
X81256000Y-200720000D02*
X78360000Y-200720000D01*
X86221000Y-200760000D02*
X83336000Y-200760000D01*
X81256000Y-200760000D02*
X78371000Y-200760000D01*
X86210000Y-200800000D02*
X83336000Y-200800000D01*
X81256000Y-200800000D02*
X78382000Y-200800000D01*
X86198000Y-200840000D02*
X83336000Y-200840000D01*
X81256000Y-200840000D02*
X78394000Y-200840000D01*
X86185000Y-200880000D02*
X83336000Y-200880000D01*
X81256000Y-200880000D02*
X78407000Y-200880000D01*
X86173000Y-200920000D02*
X83336000Y-200920000D01*
X81256000Y-200920000D02*
X78419000Y-200920000D01*
X86159000Y-200960000D02*
X83336000Y-200960000D01*
X81256000Y-200960000D02*
X78433000Y-200960000D01*
X86146000Y-201000000D02*
X83336000Y-201000000D01*
X81256000Y-201000000D02*
X78446000Y-201000000D01*
X86131000Y-201040000D02*
X83336000Y-201040000D01*
X81256000Y-201040000D02*
X78461000Y-201040000D01*
X86117000Y-201080000D02*
X83336000Y-201080000D01*
X81256000Y-201080000D02*
X78475000Y-201080000D01*
X86101000Y-201120000D02*
X83336000Y-201120000D01*
X81256000Y-201120000D02*
X78491000Y-201120000D01*
X86086000Y-201160000D02*
X83336000Y-201160000D01*
X81256000Y-201160000D02*
X78506000Y-201160000D01*
X86070000Y-201200000D02*
X83336000Y-201200000D01*
X81256000Y-201200000D02*
X78522000Y-201200000D01*
X86053000Y-201240000D02*
X83336000Y-201240000D01*
X81256000Y-201240000D02*
X78539000Y-201240000D01*
X86036000Y-201280000D02*
X83336000Y-201280000D01*
X81256000Y-201280000D02*
X78556000Y-201280000D01*
X86018000Y-201320000D02*
X83336000Y-201320000D01*
X81256000Y-201320000D02*
X78574000Y-201320000D01*
X86000000Y-201360000D02*
X83336000Y-201360000D01*
X81256000Y-201360000D02*
X78592000Y-201360000D01*
X85982000Y-201400000D02*
X83336000Y-201400000D01*
X81256000Y-201400000D02*
X78610000Y-201400000D01*
X85962000Y-201440000D02*
X83336000Y-201440000D01*
X81256000Y-201440000D02*
X78630000Y-201440000D01*
X85943000Y-201480000D02*
X83336000Y-201480000D01*
X81256000Y-201480000D02*
X78649000Y-201480000D01*
X85923000Y-201520000D02*
X83336000Y-201520000D01*
X81256000Y-201520000D02*
X78669000Y-201520000D01*
X85902000Y-201560000D02*
X83336000Y-201560000D01*
X81256000Y-201560000D02*
X78690000Y-201560000D01*
X85880000Y-201600000D02*
X83336000Y-201600000D01*
X81256000Y-201600000D02*
X78712000Y-201600000D01*
X85858000Y-201640000D02*
X83336000Y-201640000D01*
X81256000Y-201640000D02*
X78734000Y-201640000D01*
X85836000Y-201680000D02*
X83336000Y-201680000D01*
X81256000Y-201680000D02*
X78756000Y-201680000D01*
X85813000Y-201720000D02*
X83336000Y-201720000D01*
X81256000Y-201720000D02*
X78779000Y-201720000D01*
X85789000Y-201760000D02*
X83336000Y-201760000D01*
X81256000Y-201760000D02*
X78803000Y-201760000D01*
X85765000Y-201800000D02*
X83336000Y-201800000D01*
X81256000Y-201800000D02*
X78827000Y-201800000D01*
X85740000Y-201840000D02*
X83336000Y-201840000D01*
X81256000Y-201840000D02*
X78852000Y-201840000D01*
X85714000Y-201880000D02*
X83336000Y-201880000D01*
X81256000Y-201880000D02*
X78878000Y-201880000D01*
X85688000Y-201920000D02*
X83336000Y-201920000D01*
X81256000Y-201920000D02*
X78904000Y-201920000D01*
X85661000Y-201960000D02*
X83336000Y-201960000D01*
X81256000Y-201960000D02*
X78931000Y-201960000D01*
X85634000Y-202000000D02*
X83336000Y-202000000D01*
X81256000Y-202000000D02*
X78958000Y-202000000D01*
X85605000Y-202040000D02*
X83336000Y-202040000D01*
X81256000Y-202040000D02*
X78987000Y-202040000D01*
X85576000Y-202080000D02*
X83336000Y-202080000D01*
X81256000Y-202080000D02*
X79016000Y-202080000D01*
X85546000Y-202120000D02*
X83336000Y-202120000D01*
X81256000Y-202120000D02*
X79046000Y-202120000D01*
X85516000Y-202160000D02*
X83336000Y-202160000D01*
X81256000Y-202160000D02*
X79076000Y-202160000D01*
X85485000Y-202200000D02*
X83336000Y-202200000D01*
X81256000Y-202200000D02*
X79107000Y-202200000D01*
X85452000Y-202240000D02*
X83336000Y-202240000D01*
X81256000Y-202240000D02*
X79140000Y-202240000D01*
X85420000Y-202280000D02*
X83336000Y-202280000D01*
X81256000Y-202280000D02*
X79172000Y-202280000D01*
X85386000Y-202320000D02*
X83336000Y-202320000D01*
X81256000Y-202320000D02*
X79206000Y-202320000D01*
X85351000Y-202360000D02*
X83336000Y-202360000D01*
X81256000Y-202360000D02*
X79241000Y-202360000D01*
X85315000Y-202400000D02*
X83336000Y-202400000D01*
X81256000Y-202400000D02*
X79277000Y-202400000D01*
X85279000Y-202440000D02*
X83336000Y-202440000D01*
X81256000Y-202440000D02*
X79313000Y-202440000D01*
X85241000Y-202480000D02*
X83336000Y-202480000D01*
X81256000Y-202480000D02*
X79351000Y-202480000D01*
X85203000Y-202520000D02*
X83336000Y-202520000D01*
X81256000Y-202520000D02*
X79389000Y-202520000D01*
X85163000Y-202560000D02*
X83336000Y-202560000D01*
X81256000Y-202560000D02*
X79429000Y-202560000D01*
X85122000Y-202600000D02*
X79470000Y-202600000D01*
X85080000Y-202640000D02*
X79512000Y-202640000D01*
X85037000Y-202680000D02*
X79555000Y-202680000D01*
X84993000Y-202720000D02*
X79599000Y-202720000D01*
X84947000Y-202760000D02*
X79645000Y-202760000D01*
X84900000Y-202800000D02*
X79692000Y-202800000D01*
X84852000Y-202840000D02*
X79740000Y-202840000D01*
X84801000Y-202880000D02*
X79791000Y-202880000D01*
X84750000Y-202920000D02*
X79842000Y-202920000D01*
X84696000Y-202960000D02*
X79896000Y-202960000D01*
X84641000Y-203000000D02*
X79951000Y-203000000D01*
X84583000Y-203040000D02*
X80009000Y-203040000D01*
X84524000Y-203080000D02*
X80068000Y-203080000D01*
X84462000Y-203120000D02*
X80130000Y-203120000D01*
X84398000Y-203160000D02*
X80194000Y-203160000D01*
X84330000Y-203200000D02*
X80262000Y-203200000D01*
X84260000Y-203240000D02*
X80332000Y-203240000D01*
X84186000Y-203280000D02*
X80406000Y-203280000D01*
X84109000Y-203320000D02*
X80483000Y-203320000D01*
X84027000Y-203360000D02*
X80565000Y-203360000D01*
X83941000Y-203400000D02*
X80651000Y-203400000D01*
X83848000Y-203440000D02*
X80744000Y-203440000D01*
X83749000Y-203480000D02*
X80843000Y-203480000D01*
X83642000Y-203520000D02*
X80950000Y-203520000D01*
X83525000Y-203560000D02*
X81067000Y-203560000D01*
X83394000Y-203600000D02*
X81198000Y-203600000D01*
X83244000Y-203640000D02*
X81348000Y-203640000D01*
X83064000Y-203680000D02*
X81528000Y-203680000D01*
X82829000Y-203720000D02*
X81763000Y-203720000D01*
X84611000Y-195229302D02*
X84611000Y-196029302D01*
X85011000Y-195629302D02*
X84211000Y-195629302D01*
X143517057Y-218237930D02*
X143517057Y-217737930D01*
X143767057Y-217987930D02*
X143267057Y-217987930D01*
X138361282Y-216796930D02*
X138361282Y-216228930D01*
X138401282Y-217030930D02*
X138401282Y-215994930D01*
X138441282Y-217189930D02*
X138441282Y-215835930D01*
X138481282Y-217317930D02*
X138481282Y-215707930D01*
X138521282Y-217427930D02*
X138521282Y-215597930D01*
X138561282Y-217523930D02*
X138561282Y-215501930D01*
X138601282Y-217610930D02*
X138601282Y-215414930D01*
X138641282Y-217690930D02*
X138641282Y-215334930D01*
X138681282Y-215472930D02*
X138681282Y-215261930D01*
X138681282Y-217763930D02*
X138681282Y-217552930D01*
X138721282Y-215472930D02*
X138721282Y-215193930D01*
X138721282Y-217831930D02*
X138721282Y-217552930D01*
X138761282Y-215472930D02*
X138761282Y-215129930D01*
X138761282Y-217895930D02*
X138761282Y-217552930D01*
X138801282Y-215472930D02*
X138801282Y-215069930D01*
X138801282Y-217955930D02*
X138801282Y-217552930D01*
X138841282Y-215472930D02*
X138841282Y-215012930D01*
X138841282Y-218012930D02*
X138841282Y-217552930D01*
X138881282Y-215472930D02*
X138881282Y-214958930D01*
X138881282Y-218066930D02*
X138881282Y-217552930D01*
X138921282Y-215472930D02*
X138921282Y-214907930D01*
X138921282Y-218117930D02*
X138921282Y-217552930D01*
X138961282Y-215472930D02*
X138961282Y-214859930D01*
X138961282Y-218165930D02*
X138961282Y-217552930D01*
X139001282Y-215472930D02*
X139001282Y-214813930D01*
X139001282Y-218211930D02*
X139001282Y-217552930D01*
X139041282Y-215472930D02*
X139041282Y-214769930D01*
X139041282Y-218255930D02*
X139041282Y-217552930D01*
X139081282Y-215472930D02*
X139081282Y-214727930D01*
X139081282Y-218297930D02*
X139081282Y-217552930D01*
X139121282Y-215472930D02*
X139121282Y-214686930D01*
X139121282Y-218338930D02*
X139121282Y-217552930D01*
X139161282Y-215472930D02*
X139161282Y-214648930D01*
X139161282Y-218376930D02*
X139161282Y-217552930D01*
X139201282Y-215472930D02*
X139201282Y-214611930D01*
X139201282Y-218413930D02*
X139201282Y-217552930D01*
X139241282Y-215472930D02*
X139241282Y-214575930D01*
X139241282Y-218449930D02*
X139241282Y-217552930D01*
X139281282Y-215472930D02*
X139281282Y-214541930D01*
X139281282Y-218483930D02*
X139281282Y-217552930D01*
X139321282Y-215472930D02*
X139321282Y-214508930D01*
X139321282Y-218516930D02*
X139321282Y-217552930D01*
X139361282Y-215472930D02*
X139361282Y-214477930D01*
X139361282Y-218547930D02*
X139361282Y-217552930D01*
X139401282Y-215472930D02*
X139401282Y-214447930D01*
X139401282Y-218577930D02*
X139401282Y-217552930D01*
X139441282Y-215472930D02*
X139441282Y-214417930D01*
X139441282Y-218607930D02*
X139441282Y-217552930D01*
X139481282Y-215472930D02*
X139481282Y-214390930D01*
X139481282Y-218634930D02*
X139481282Y-217552930D01*
X139521282Y-215472930D02*
X139521282Y-214363930D01*
X139521282Y-218661930D02*
X139521282Y-217552930D01*
X139561282Y-215472930D02*
X139561282Y-214337930D01*
X139561282Y-218687930D02*
X139561282Y-217552930D01*
X139601282Y-215472930D02*
X139601282Y-214312930D01*
X139601282Y-218712930D02*
X139601282Y-217552930D01*
X139641282Y-215472930D02*
X139641282Y-214288930D01*
X139641282Y-218736930D02*
X139641282Y-217552930D01*
X139681282Y-215472930D02*
X139681282Y-214265930D01*
X139681282Y-218759930D02*
X139681282Y-217552930D01*
X139721282Y-215472930D02*
X139721282Y-214244930D01*
X139721282Y-218780930D02*
X139721282Y-217552930D01*
X139761282Y-215472930D02*
X139761282Y-214222930D01*
X139761282Y-218802930D02*
X139761282Y-217552930D01*
X139801282Y-215472930D02*
X139801282Y-214202930D01*
X139801282Y-218822930D02*
X139801282Y-217552930D01*
X139841282Y-215472930D02*
X139841282Y-214183930D01*
X139841282Y-218841930D02*
X139841282Y-217552930D01*
X139881282Y-215472930D02*
X139881282Y-214164930D01*
X139881282Y-218860930D02*
X139881282Y-217552930D01*
X139921282Y-215472930D02*
X139921282Y-214147930D01*
X139921282Y-218877930D02*
X139921282Y-217552930D01*
X139961282Y-215472930D02*
X139961282Y-214130930D01*
X139961282Y-218894930D02*
X139961282Y-217552930D01*
X140001282Y-215472930D02*
X140001282Y-214114930D01*
X140001282Y-218910930D02*
X140001282Y-217552930D01*
X140041282Y-215472930D02*
X140041282Y-214098930D01*
X140041282Y-218926930D02*
X140041282Y-217552930D01*
X140081282Y-215472930D02*
X140081282Y-214084930D01*
X140081282Y-218940930D02*
X140081282Y-217552930D01*
X140121282Y-215472930D02*
X140121282Y-214070930D01*
X140121282Y-218954930D02*
X140121282Y-217552930D01*
X140161282Y-215472930D02*
X140161282Y-214057930D01*
X140161282Y-218967930D02*
X140161282Y-217552930D01*
X140201282Y-215472930D02*
X140201282Y-214044930D01*
X140201282Y-218980930D02*
X140201282Y-217552930D01*
X140241282Y-215472930D02*
X140241282Y-214032930D01*
X140241282Y-218992930D02*
X140241282Y-217552930D01*
X140282282Y-215472930D02*
X140282282Y-214021930D01*
X140282282Y-219003930D02*
X140282282Y-217552930D01*
X140322282Y-215472930D02*
X140322282Y-214011930D01*
X140322282Y-219013930D02*
X140322282Y-217552930D01*
X140362282Y-215472930D02*
X140362282Y-214001930D01*
X140362282Y-219023930D02*
X140362282Y-217552930D01*
X140402282Y-215472930D02*
X140402282Y-213992930D01*
X140402282Y-219032930D02*
X140402282Y-217552930D01*
X140442282Y-215472930D02*
X140442282Y-213984930D01*
X140442282Y-219040930D02*
X140442282Y-217552930D01*
X140482282Y-215472930D02*
X140482282Y-213976930D01*
X140482282Y-219048930D02*
X140482282Y-217552930D01*
X140522282Y-215472930D02*
X140522282Y-213969930D01*
X140522282Y-219055930D02*
X140522282Y-217552930D01*
X140562282Y-215472930D02*
X140562282Y-213962930D01*
X140562282Y-219062930D02*
X140562282Y-217552930D01*
X140602282Y-215472930D02*
X140602282Y-213956930D01*
X140602282Y-219068930D02*
X140602282Y-217552930D01*
X140642282Y-215472930D02*
X140642282Y-213951930D01*
X140642282Y-219073930D02*
X140642282Y-217552930D01*
X140682282Y-215472930D02*
X140682282Y-213947930D01*
X140682282Y-219077930D02*
X140682282Y-217552930D01*
X140722282Y-215472930D02*
X140722282Y-213943930D01*
X140722282Y-219081930D02*
X140722282Y-217552930D01*
X140762282Y-219085930D02*
X140762282Y-213939930D01*
X140802282Y-219088930D02*
X140802282Y-213936930D01*
X140842282Y-219090930D02*
X140842282Y-213934930D01*
X140882282Y-219091930D02*
X140882282Y-213933930D01*
X140922282Y-219092930D02*
X140922282Y-213932930D01*
X140962282Y-219092930D02*
X140962282Y-213932930D01*
X143582282Y-216512930D02*
G75*
G03X143582282Y-216512930I-2620000J0D01*
G01*
X82339500Y-212450000D02*
X83639500Y-212450000D01*
X82339500Y-214270000D02*
X83639500Y-214270000D01*
X140292282Y-230842930D02*
X141592282Y-230842930D01*
X140292282Y-232662930D02*
X141592282Y-232662930D01*
X77195000Y-212544500D02*
X77195000Y-211244500D01*
X79015000Y-212544500D02*
X79015000Y-211244500D01*
X140292282Y-239647930D02*
X141592282Y-239647930D01*
X140292282Y-237827930D02*
X141592282Y-237827930D01*
X92158500Y-225954000D02*
X90858500Y-225954000D01*
X92158500Y-224134000D02*
X90858500Y-224134000D01*
X90858500Y-222779000D02*
X92158500Y-222779000D01*
X90858500Y-220959000D02*
X92158500Y-220959000D01*
X94156302Y-214074000D02*
X94156302Y-214874000D01*
X93756302Y-214474000D02*
X94556302Y-214474000D01*
X102247000Y-216256000D02*
X102247000Y-217322000D01*
X102207000Y-216021000D02*
X102207000Y-217557000D01*
X102167000Y-215841000D02*
X102167000Y-217737000D01*
X102127000Y-215691000D02*
X102127000Y-217887000D01*
X102087000Y-215560000D02*
X102087000Y-218018000D01*
X102047000Y-215443000D02*
X102047000Y-218135000D01*
X102007000Y-215336000D02*
X102007000Y-218242000D01*
X101967000Y-215237000D02*
X101967000Y-218341000D01*
X101927000Y-215144000D02*
X101927000Y-218434000D01*
X101887000Y-215058000D02*
X101887000Y-218520000D01*
X101847000Y-214976000D02*
X101847000Y-218602000D01*
X101807000Y-214899000D02*
X101807000Y-218679000D01*
X101767000Y-214825000D02*
X101767000Y-218753000D01*
X101727000Y-214755000D02*
X101727000Y-218823000D01*
X101687000Y-214687000D02*
X101687000Y-218891000D01*
X101647000Y-214623000D02*
X101647000Y-218955000D01*
X101607000Y-214561000D02*
X101607000Y-219017000D01*
X101567000Y-214502000D02*
X101567000Y-219076000D01*
X101527000Y-214444000D02*
X101527000Y-219134000D01*
X101487000Y-214389000D02*
X101487000Y-219189000D01*
X101447000Y-214335000D02*
X101447000Y-219243000D01*
X101407000Y-214284000D02*
X101407000Y-219294000D01*
X101367000Y-214233000D02*
X101367000Y-219345000D01*
X101327000Y-214185000D02*
X101327000Y-219393000D01*
X101287000Y-214138000D02*
X101287000Y-219440000D01*
X101247000Y-214092000D02*
X101247000Y-219486000D01*
X101207000Y-214048000D02*
X101207000Y-219530000D01*
X101167000Y-214005000D02*
X101167000Y-219573000D01*
X101127000Y-213963000D02*
X101127000Y-219615000D01*
X101087000Y-217829000D02*
X101087000Y-219656000D01*
X101087000Y-213922000D02*
X101087000Y-215749000D01*
X101047000Y-217829000D02*
X101047000Y-219696000D01*
X101047000Y-213882000D02*
X101047000Y-215749000D01*
X101007000Y-217829000D02*
X101007000Y-219734000D01*
X101007000Y-213844000D02*
X101007000Y-215749000D01*
X100967000Y-217829000D02*
X100967000Y-219772000D01*
X100967000Y-213806000D02*
X100967000Y-215749000D01*
X100927000Y-217829000D02*
X100927000Y-219808000D01*
X100927000Y-213770000D02*
X100927000Y-215749000D01*
X100887000Y-217829000D02*
X100887000Y-219844000D01*
X100887000Y-213734000D02*
X100887000Y-215749000D01*
X100847000Y-217829000D02*
X100847000Y-219879000D01*
X100847000Y-213699000D02*
X100847000Y-215749000D01*
X100807000Y-217829000D02*
X100807000Y-219913000D01*
X100807000Y-213665000D02*
X100807000Y-215749000D01*
X100767000Y-217829000D02*
X100767000Y-219945000D01*
X100767000Y-213633000D02*
X100767000Y-215749000D01*
X100727000Y-217829000D02*
X100727000Y-219978000D01*
X100727000Y-213600000D02*
X100727000Y-215749000D01*
X100687000Y-217829000D02*
X100687000Y-220009000D01*
X100687000Y-213569000D02*
X100687000Y-215749000D01*
X100647000Y-217829000D02*
X100647000Y-220039000D01*
X100647000Y-213539000D02*
X100647000Y-215749000D01*
X100607000Y-217829000D02*
X100607000Y-220069000D01*
X100607000Y-213509000D02*
X100607000Y-215749000D01*
X100567000Y-217829000D02*
X100567000Y-220098000D01*
X100567000Y-213480000D02*
X100567000Y-215749000D01*
X100527000Y-217829000D02*
X100527000Y-220127000D01*
X100527000Y-213451000D02*
X100527000Y-215749000D01*
X100487000Y-217829000D02*
X100487000Y-220154000D01*
X100487000Y-213424000D02*
X100487000Y-215749000D01*
X100447000Y-217829000D02*
X100447000Y-220181000D01*
X100447000Y-213397000D02*
X100447000Y-215749000D01*
X100407000Y-217829000D02*
X100407000Y-220207000D01*
X100407000Y-213371000D02*
X100407000Y-215749000D01*
X100367000Y-217829000D02*
X100367000Y-220233000D01*
X100367000Y-213345000D02*
X100367000Y-215749000D01*
X100327000Y-217829000D02*
X100327000Y-220258000D01*
X100327000Y-213320000D02*
X100327000Y-215749000D01*
X100287000Y-217829000D02*
X100287000Y-220282000D01*
X100287000Y-213296000D02*
X100287000Y-215749000D01*
X100247000Y-217829000D02*
X100247000Y-220306000D01*
X100247000Y-213272000D02*
X100247000Y-215749000D01*
X100207000Y-217829000D02*
X100207000Y-220329000D01*
X100207000Y-213249000D02*
X100207000Y-215749000D01*
X100167000Y-217829000D02*
X100167000Y-220351000D01*
X100167000Y-213227000D02*
X100167000Y-215749000D01*
X100127000Y-217829000D02*
X100127000Y-220373000D01*
X100127000Y-213205000D02*
X100127000Y-215749000D01*
X100087000Y-217829000D02*
X100087000Y-220395000D01*
X100087000Y-213183000D02*
X100087000Y-215749000D01*
X100047000Y-217829000D02*
X100047000Y-220416000D01*
X100047000Y-213162000D02*
X100047000Y-215749000D01*
X100007000Y-217829000D02*
X100007000Y-220436000D01*
X100007000Y-213142000D02*
X100007000Y-215749000D01*
X99967000Y-217829000D02*
X99967000Y-220455000D01*
X99967000Y-213123000D02*
X99967000Y-215749000D01*
X99927000Y-217829000D02*
X99927000Y-220475000D01*
X99927000Y-213103000D02*
X99927000Y-215749000D01*
X99887000Y-217829000D02*
X99887000Y-220493000D01*
X99887000Y-213085000D02*
X99887000Y-215749000D01*
X99847000Y-217829000D02*
X99847000Y-220511000D01*
X99847000Y-213067000D02*
X99847000Y-215749000D01*
X99807000Y-217829000D02*
X99807000Y-220529000D01*
X99807000Y-213049000D02*
X99807000Y-215749000D01*
X99767000Y-217829000D02*
X99767000Y-220546000D01*
X99767000Y-213032000D02*
X99767000Y-215749000D01*
X99727000Y-217829000D02*
X99727000Y-220563000D01*
X99727000Y-213015000D02*
X99727000Y-215749000D01*
X99687000Y-217829000D02*
X99687000Y-220579000D01*
X99687000Y-212999000D02*
X99687000Y-215749000D01*
X99647000Y-217829000D02*
X99647000Y-220594000D01*
X99647000Y-212984000D02*
X99647000Y-215749000D01*
X99607000Y-217829000D02*
X99607000Y-220610000D01*
X99607000Y-212968000D02*
X99607000Y-215749000D01*
X99567000Y-217829000D02*
X99567000Y-220624000D01*
X99567000Y-212954000D02*
X99567000Y-215749000D01*
X99527000Y-217829000D02*
X99527000Y-220639000D01*
X99527000Y-212939000D02*
X99527000Y-215749000D01*
X99487000Y-217829000D02*
X99487000Y-220652000D01*
X99487000Y-212926000D02*
X99487000Y-215749000D01*
X99447000Y-217829000D02*
X99447000Y-220666000D01*
X99447000Y-212912000D02*
X99447000Y-215749000D01*
X99407000Y-217829000D02*
X99407000Y-220678000D01*
X99407000Y-212900000D02*
X99407000Y-215749000D01*
X99367000Y-217829000D02*
X99367000Y-220691000D01*
X99367000Y-212887000D02*
X99367000Y-215749000D01*
X99327000Y-217829000D02*
X99327000Y-220703000D01*
X99327000Y-212875000D02*
X99327000Y-215749000D01*
X99287000Y-217829000D02*
X99287000Y-220714000D01*
X99287000Y-212864000D02*
X99287000Y-215749000D01*
X99247000Y-217829000D02*
X99247000Y-220725000D01*
X99247000Y-212853000D02*
X99247000Y-215749000D01*
X99207000Y-217829000D02*
X99207000Y-220736000D01*
X99207000Y-212842000D02*
X99207000Y-215749000D01*
X99167000Y-217829000D02*
X99167000Y-220746000D01*
X99167000Y-212832000D02*
X99167000Y-215749000D01*
X99127000Y-217829000D02*
X99127000Y-220756000D01*
X99127000Y-212822000D02*
X99127000Y-215749000D01*
X99087000Y-217829000D02*
X99087000Y-220765000D01*
X99087000Y-212813000D02*
X99087000Y-215749000D01*
X99047000Y-217829000D02*
X99047000Y-220774000D01*
X99047000Y-212804000D02*
X99047000Y-215749000D01*
X99007000Y-212795000D02*
X99007000Y-220783000D01*
X98967000Y-212787000D02*
X98967000Y-220791000D01*
X98927000Y-212779000D02*
X98927000Y-220799000D01*
X98887000Y-212772000D02*
X98887000Y-220806000D01*
X98846000Y-212765000D02*
X98846000Y-220813000D01*
X98806000Y-212759000D02*
X98806000Y-220819000D01*
X98766000Y-212752000D02*
X98766000Y-220826000D01*
X98726000Y-212747000D02*
X98726000Y-220831000D01*
X98686000Y-212741000D02*
X98686000Y-220837000D01*
X98646000Y-212737000D02*
X98646000Y-220841000D01*
X98606000Y-212732000D02*
X98606000Y-220846000D01*
X98566000Y-212728000D02*
X98566000Y-220850000D01*
X98526000Y-212724000D02*
X98526000Y-220854000D01*
X98486000Y-212721000D02*
X98486000Y-220857000D01*
X98446000Y-212718000D02*
X98446000Y-220860000D01*
X98406000Y-212715000D02*
X98406000Y-220863000D01*
X98366000Y-212713000D02*
X98366000Y-220865000D01*
X98326000Y-212712000D02*
X98326000Y-220866000D01*
X98286000Y-212710000D02*
X98286000Y-220868000D01*
X98246000Y-212709000D02*
X98246000Y-220869000D01*
X98206000Y-212709000D02*
X98206000Y-220869000D01*
X98166000Y-212709000D02*
X98166000Y-220869000D01*
X102286000Y-216789000D02*
G75*
G03X102286000Y-216789000I-4120000J0D01*
G01*
X100136000Y-231394000D02*
G75*
G03X100136000Y-231394000I-2620000J0D01*
G01*
X97516000Y-228814000D02*
X97516000Y-233974000D01*
X97556000Y-228814000D02*
X97556000Y-233974000D01*
X97596000Y-228815000D02*
X97596000Y-233973000D01*
X97636000Y-228816000D02*
X97636000Y-233972000D01*
X97676000Y-228818000D02*
X97676000Y-233970000D01*
X97716000Y-228821000D02*
X97716000Y-233967000D01*
X97756000Y-228825000D02*
X97756000Y-230354000D01*
X97756000Y-232434000D02*
X97756000Y-233963000D01*
X97796000Y-228829000D02*
X97796000Y-230354000D01*
X97796000Y-232434000D02*
X97796000Y-233959000D01*
X97836000Y-228833000D02*
X97836000Y-230354000D01*
X97836000Y-232434000D02*
X97836000Y-233955000D01*
X97876000Y-228838000D02*
X97876000Y-230354000D01*
X97876000Y-232434000D02*
X97876000Y-233950000D01*
X97916000Y-228844000D02*
X97916000Y-230354000D01*
X97916000Y-232434000D02*
X97916000Y-233944000D01*
X97956000Y-228851000D02*
X97956000Y-230354000D01*
X97956000Y-232434000D02*
X97956000Y-233937000D01*
X97996000Y-228858000D02*
X97996000Y-230354000D01*
X97996000Y-232434000D02*
X97996000Y-233930000D01*
X98036000Y-228866000D02*
X98036000Y-230354000D01*
X98036000Y-232434000D02*
X98036000Y-233922000D01*
X98076000Y-228874000D02*
X98076000Y-230354000D01*
X98076000Y-232434000D02*
X98076000Y-233914000D01*
X98116000Y-228883000D02*
X98116000Y-230354000D01*
X98116000Y-232434000D02*
X98116000Y-233905000D01*
X98156000Y-228893000D02*
X98156000Y-230354000D01*
X98156000Y-232434000D02*
X98156000Y-233895000D01*
X98196000Y-228903000D02*
X98196000Y-230354000D01*
X98196000Y-232434000D02*
X98196000Y-233885000D01*
X98237000Y-228914000D02*
X98237000Y-230354000D01*
X98237000Y-232434000D02*
X98237000Y-233874000D01*
X98277000Y-228926000D02*
X98277000Y-230354000D01*
X98277000Y-232434000D02*
X98277000Y-233862000D01*
X98317000Y-228939000D02*
X98317000Y-230354000D01*
X98317000Y-232434000D02*
X98317000Y-233849000D01*
X98357000Y-228952000D02*
X98357000Y-230354000D01*
X98357000Y-232434000D02*
X98357000Y-233836000D01*
X98397000Y-228966000D02*
X98397000Y-230354000D01*
X98397000Y-232434000D02*
X98397000Y-233822000D01*
X98437000Y-228980000D02*
X98437000Y-230354000D01*
X98437000Y-232434000D02*
X98437000Y-233808000D01*
X98477000Y-228996000D02*
X98477000Y-230354000D01*
X98477000Y-232434000D02*
X98477000Y-233792000D01*
X98517000Y-229012000D02*
X98517000Y-230354000D01*
X98517000Y-232434000D02*
X98517000Y-233776000D01*
X98557000Y-229029000D02*
X98557000Y-230354000D01*
X98557000Y-232434000D02*
X98557000Y-233759000D01*
X98597000Y-229046000D02*
X98597000Y-230354000D01*
X98597000Y-232434000D02*
X98597000Y-233742000D01*
X98637000Y-229065000D02*
X98637000Y-230354000D01*
X98637000Y-232434000D02*
X98637000Y-233723000D01*
X98677000Y-229084000D02*
X98677000Y-230354000D01*
X98677000Y-232434000D02*
X98677000Y-233704000D01*
X98717000Y-229104000D02*
X98717000Y-230354000D01*
X98717000Y-232434000D02*
X98717000Y-233684000D01*
X98757000Y-229126000D02*
X98757000Y-230354000D01*
X98757000Y-232434000D02*
X98757000Y-233662000D01*
X98797000Y-229147000D02*
X98797000Y-230354000D01*
X98797000Y-232434000D02*
X98797000Y-233641000D01*
X98837000Y-229170000D02*
X98837000Y-230354000D01*
X98837000Y-232434000D02*
X98837000Y-233618000D01*
X98877000Y-229194000D02*
X98877000Y-230354000D01*
X98877000Y-232434000D02*
X98877000Y-233594000D01*
X98917000Y-229219000D02*
X98917000Y-230354000D01*
X98917000Y-232434000D02*
X98917000Y-233569000D01*
X98957000Y-229245000D02*
X98957000Y-230354000D01*
X98957000Y-232434000D02*
X98957000Y-233543000D01*
X98997000Y-229272000D02*
X98997000Y-230354000D01*
X98997000Y-232434000D02*
X98997000Y-233516000D01*
X99037000Y-229299000D02*
X99037000Y-230354000D01*
X99037000Y-232434000D02*
X99037000Y-233489000D01*
X99077000Y-229329000D02*
X99077000Y-230354000D01*
X99077000Y-232434000D02*
X99077000Y-233459000D01*
X99117000Y-229359000D02*
X99117000Y-230354000D01*
X99117000Y-232434000D02*
X99117000Y-233429000D01*
X99157000Y-229390000D02*
X99157000Y-230354000D01*
X99157000Y-232434000D02*
X99157000Y-233398000D01*
X99197000Y-229423000D02*
X99197000Y-230354000D01*
X99197000Y-232434000D02*
X99197000Y-233365000D01*
X99237000Y-229457000D02*
X99237000Y-230354000D01*
X99237000Y-232434000D02*
X99237000Y-233331000D01*
X99277000Y-229493000D02*
X99277000Y-230354000D01*
X99277000Y-232434000D02*
X99277000Y-233295000D01*
X99317000Y-229530000D02*
X99317000Y-230354000D01*
X99317000Y-232434000D02*
X99317000Y-233258000D01*
X99357000Y-229568000D02*
X99357000Y-230354000D01*
X99357000Y-232434000D02*
X99357000Y-233220000D01*
X99397000Y-229609000D02*
X99397000Y-230354000D01*
X99397000Y-232434000D02*
X99397000Y-233179000D01*
X99437000Y-229651000D02*
X99437000Y-230354000D01*
X99437000Y-232434000D02*
X99437000Y-233137000D01*
X99477000Y-229695000D02*
X99477000Y-230354000D01*
X99477000Y-232434000D02*
X99477000Y-233093000D01*
X99517000Y-229741000D02*
X99517000Y-230354000D01*
X99517000Y-232434000D02*
X99517000Y-233047000D01*
X99557000Y-229789000D02*
X99557000Y-230354000D01*
X99557000Y-232434000D02*
X99557000Y-232999000D01*
X99597000Y-229840000D02*
X99597000Y-230354000D01*
X99597000Y-232434000D02*
X99597000Y-232948000D01*
X99637000Y-229894000D02*
X99637000Y-230354000D01*
X99637000Y-232434000D02*
X99637000Y-232894000D01*
X99677000Y-229951000D02*
X99677000Y-230354000D01*
X99677000Y-232434000D02*
X99677000Y-232837000D01*
X99717000Y-230011000D02*
X99717000Y-230354000D01*
X99717000Y-232434000D02*
X99717000Y-232777000D01*
X99757000Y-230075000D02*
X99757000Y-230354000D01*
X99757000Y-232434000D02*
X99757000Y-232713000D01*
X99797000Y-230143000D02*
X99797000Y-230354000D01*
X99797000Y-232434000D02*
X99797000Y-232645000D01*
X99837000Y-230216000D02*
X99837000Y-232572000D01*
X99877000Y-230296000D02*
X99877000Y-232492000D01*
X99917000Y-230383000D02*
X99917000Y-232405000D01*
X99957000Y-230479000D02*
X99957000Y-232309000D01*
X99997000Y-230589000D02*
X99997000Y-232199000D01*
X100037000Y-230717000D02*
X100037000Y-232071000D01*
X100077000Y-230876000D02*
X100077000Y-231912000D01*
X100117000Y-231110000D02*
X100117000Y-231678000D01*
X94711225Y-229919000D02*
X95211225Y-229919000D01*
X94961225Y-229669000D02*
X94961225Y-230169000D01*
X71008000Y-218038000D02*
X69708000Y-218038000D01*
X71008000Y-219858000D02*
X69708000Y-219858000D01*
X92731000Y-229796500D02*
X92731000Y-231096500D01*
X90911000Y-229796500D02*
X90911000Y-231096500D01*
X90191000Y-229786500D02*
X90191000Y-231086500D01*
X88371000Y-229786500D02*
X88371000Y-231086500D01*
X131882000Y-233675000D02*
G75*
G03X131882000Y-233675000I-4120000J0D01*
G01*
X131842000Y-233675000D02*
X123682000Y-233675000D01*
X131842000Y-233715000D02*
X123682000Y-233715000D01*
X131842000Y-233755000D02*
X123682000Y-233755000D01*
X131841000Y-233795000D02*
X123683000Y-233795000D01*
X131839000Y-233835000D02*
X123685000Y-233835000D01*
X131838000Y-233875000D02*
X123686000Y-233875000D01*
X131836000Y-233915000D02*
X123688000Y-233915000D01*
X131833000Y-233955000D02*
X123691000Y-233955000D01*
X131830000Y-233995000D02*
X123694000Y-233995000D01*
X131827000Y-234035000D02*
X123697000Y-234035000D01*
X131823000Y-234075000D02*
X123701000Y-234075000D01*
X131819000Y-234115000D02*
X123705000Y-234115000D01*
X131814000Y-234155000D02*
X123710000Y-234155000D01*
X131810000Y-234195000D02*
X123714000Y-234195000D01*
X131804000Y-234235000D02*
X123720000Y-234235000D01*
X131799000Y-234275000D02*
X123725000Y-234275000D01*
X131792000Y-234315000D02*
X123732000Y-234315000D01*
X131786000Y-234355000D02*
X123738000Y-234355000D01*
X131779000Y-234396000D02*
X123745000Y-234396000D01*
X131772000Y-234436000D02*
X123752000Y-234436000D01*
X131764000Y-234476000D02*
X123760000Y-234476000D01*
X131756000Y-234516000D02*
X123768000Y-234516000D01*
X131747000Y-234556000D02*
X128802000Y-234556000D01*
X126722000Y-234556000D02*
X123777000Y-234556000D01*
X131738000Y-234596000D02*
X128802000Y-234596000D01*
X126722000Y-234596000D02*
X123786000Y-234596000D01*
X131729000Y-234636000D02*
X128802000Y-234636000D01*
X126722000Y-234636000D02*
X123795000Y-234636000D01*
X131719000Y-234676000D02*
X128802000Y-234676000D01*
X126722000Y-234676000D02*
X123805000Y-234676000D01*
X131709000Y-234716000D02*
X128802000Y-234716000D01*
X126722000Y-234716000D02*
X123815000Y-234716000D01*
X131698000Y-234756000D02*
X128802000Y-234756000D01*
X126722000Y-234756000D02*
X123826000Y-234756000D01*
X131687000Y-234796000D02*
X128802000Y-234796000D01*
X126722000Y-234796000D02*
X123837000Y-234796000D01*
X131676000Y-234836000D02*
X128802000Y-234836000D01*
X126722000Y-234836000D02*
X123848000Y-234836000D01*
X131664000Y-234876000D02*
X128802000Y-234876000D01*
X126722000Y-234876000D02*
X123860000Y-234876000D01*
X131651000Y-234916000D02*
X128802000Y-234916000D01*
X126722000Y-234916000D02*
X123873000Y-234916000D01*
X131639000Y-234956000D02*
X128802000Y-234956000D01*
X126722000Y-234956000D02*
X123885000Y-234956000D01*
X131625000Y-234996000D02*
X128802000Y-234996000D01*
X126722000Y-234996000D02*
X123899000Y-234996000D01*
X131612000Y-235036000D02*
X128802000Y-235036000D01*
X126722000Y-235036000D02*
X123912000Y-235036000D01*
X131597000Y-235076000D02*
X128802000Y-235076000D01*
X126722000Y-235076000D02*
X123927000Y-235076000D01*
X131583000Y-235116000D02*
X128802000Y-235116000D01*
X126722000Y-235116000D02*
X123941000Y-235116000D01*
X131567000Y-235156000D02*
X128802000Y-235156000D01*
X126722000Y-235156000D02*
X123957000Y-235156000D01*
X131552000Y-235196000D02*
X128802000Y-235196000D01*
X126722000Y-235196000D02*
X123972000Y-235196000D01*
X131536000Y-235236000D02*
X128802000Y-235236000D01*
X126722000Y-235236000D02*
X123988000Y-235236000D01*
X131519000Y-235276000D02*
X128802000Y-235276000D01*
X126722000Y-235276000D02*
X124005000Y-235276000D01*
X131502000Y-235316000D02*
X128802000Y-235316000D01*
X126722000Y-235316000D02*
X124022000Y-235316000D01*
X131484000Y-235356000D02*
X128802000Y-235356000D01*
X126722000Y-235356000D02*
X124040000Y-235356000D01*
X131466000Y-235396000D02*
X128802000Y-235396000D01*
X126722000Y-235396000D02*
X124058000Y-235396000D01*
X131448000Y-235436000D02*
X128802000Y-235436000D01*
X126722000Y-235436000D02*
X124076000Y-235436000D01*
X131428000Y-235476000D02*
X128802000Y-235476000D01*
X126722000Y-235476000D02*
X124096000Y-235476000D01*
X131409000Y-235516000D02*
X128802000Y-235516000D01*
X126722000Y-235516000D02*
X124115000Y-235516000D01*
X131389000Y-235556000D02*
X128802000Y-235556000D01*
X126722000Y-235556000D02*
X124135000Y-235556000D01*
X131368000Y-235596000D02*
X128802000Y-235596000D01*
X126722000Y-235596000D02*
X124156000Y-235596000D01*
X131346000Y-235636000D02*
X128802000Y-235636000D01*
X126722000Y-235636000D02*
X124178000Y-235636000D01*
X131324000Y-235676000D02*
X128802000Y-235676000D01*
X126722000Y-235676000D02*
X124200000Y-235676000D01*
X131302000Y-235716000D02*
X128802000Y-235716000D01*
X126722000Y-235716000D02*
X124222000Y-235716000D01*
X131279000Y-235756000D02*
X128802000Y-235756000D01*
X126722000Y-235756000D02*
X124245000Y-235756000D01*
X131255000Y-235796000D02*
X128802000Y-235796000D01*
X126722000Y-235796000D02*
X124269000Y-235796000D01*
X131231000Y-235836000D02*
X128802000Y-235836000D01*
X126722000Y-235836000D02*
X124293000Y-235836000D01*
X131206000Y-235876000D02*
X128802000Y-235876000D01*
X126722000Y-235876000D02*
X124318000Y-235876000D01*
X131180000Y-235916000D02*
X128802000Y-235916000D01*
X126722000Y-235916000D02*
X124344000Y-235916000D01*
X131154000Y-235956000D02*
X128802000Y-235956000D01*
X126722000Y-235956000D02*
X124370000Y-235956000D01*
X131127000Y-235996000D02*
X128802000Y-235996000D01*
X126722000Y-235996000D02*
X124397000Y-235996000D01*
X131100000Y-236036000D02*
X128802000Y-236036000D01*
X126722000Y-236036000D02*
X124424000Y-236036000D01*
X131071000Y-236076000D02*
X128802000Y-236076000D01*
X126722000Y-236076000D02*
X124453000Y-236076000D01*
X131042000Y-236116000D02*
X128802000Y-236116000D01*
X126722000Y-236116000D02*
X124482000Y-236116000D01*
X131012000Y-236156000D02*
X128802000Y-236156000D01*
X126722000Y-236156000D02*
X124512000Y-236156000D01*
X130982000Y-236196000D02*
X128802000Y-236196000D01*
X126722000Y-236196000D02*
X124542000Y-236196000D01*
X130951000Y-236236000D02*
X128802000Y-236236000D01*
X126722000Y-236236000D02*
X124573000Y-236236000D01*
X130918000Y-236276000D02*
X128802000Y-236276000D01*
X126722000Y-236276000D02*
X124606000Y-236276000D01*
X130886000Y-236316000D02*
X128802000Y-236316000D01*
X126722000Y-236316000D02*
X124638000Y-236316000D01*
X130852000Y-236356000D02*
X128802000Y-236356000D01*
X126722000Y-236356000D02*
X124672000Y-236356000D01*
X130817000Y-236396000D02*
X128802000Y-236396000D01*
X126722000Y-236396000D02*
X124707000Y-236396000D01*
X130781000Y-236436000D02*
X128802000Y-236436000D01*
X126722000Y-236436000D02*
X124743000Y-236436000D01*
X130745000Y-236476000D02*
X128802000Y-236476000D01*
X126722000Y-236476000D02*
X124779000Y-236476000D01*
X130707000Y-236516000D02*
X128802000Y-236516000D01*
X126722000Y-236516000D02*
X124817000Y-236516000D01*
X130669000Y-236556000D02*
X128802000Y-236556000D01*
X126722000Y-236556000D02*
X124855000Y-236556000D01*
X130629000Y-236596000D02*
X128802000Y-236596000D01*
X126722000Y-236596000D02*
X124895000Y-236596000D01*
X130588000Y-236636000D02*
X124936000Y-236636000D01*
X130546000Y-236676000D02*
X124978000Y-236676000D01*
X130503000Y-236716000D02*
X125021000Y-236716000D01*
X130459000Y-236756000D02*
X125065000Y-236756000D01*
X130413000Y-236796000D02*
X125111000Y-236796000D01*
X130366000Y-236836000D02*
X125158000Y-236836000D01*
X130318000Y-236876000D02*
X125206000Y-236876000D01*
X130267000Y-236916000D02*
X125257000Y-236916000D01*
X130216000Y-236956000D02*
X125308000Y-236956000D01*
X130162000Y-236996000D02*
X125362000Y-236996000D01*
X130107000Y-237036000D02*
X125417000Y-237036000D01*
X130049000Y-237076000D02*
X125475000Y-237076000D01*
X129990000Y-237116000D02*
X125534000Y-237116000D01*
X129928000Y-237156000D02*
X125596000Y-237156000D01*
X129864000Y-237196000D02*
X125660000Y-237196000D01*
X129796000Y-237236000D02*
X125728000Y-237236000D01*
X129726000Y-237276000D02*
X125798000Y-237276000D01*
X129652000Y-237316000D02*
X125872000Y-237316000D01*
X129575000Y-237356000D02*
X125949000Y-237356000D01*
X129493000Y-237396000D02*
X126031000Y-237396000D01*
X129407000Y-237436000D02*
X126117000Y-237436000D01*
X129314000Y-237476000D02*
X126210000Y-237476000D01*
X129215000Y-237516000D02*
X126309000Y-237516000D01*
X129108000Y-237556000D02*
X126416000Y-237556000D01*
X128991000Y-237596000D02*
X126533000Y-237596000D01*
X128860000Y-237636000D02*
X126664000Y-237636000D01*
X128710000Y-237676000D02*
X126814000Y-237676000D01*
X128530000Y-237716000D02*
X126994000Y-237716000D01*
X128295000Y-237756000D02*
X127229000Y-237756000D01*
X130077000Y-229265302D02*
X130077000Y-230065302D01*
X130477000Y-229665302D02*
X129677000Y-229665302D01*
X115869782Y-230842930D02*
X114569782Y-230842930D01*
X115869782Y-232662930D02*
X114569782Y-232662930D01*
X123273500Y-220747000D02*
X121973500Y-220747000D01*
X123273500Y-218927000D02*
X121973500Y-218927000D01*
X115643500Y-218927000D02*
X114343500Y-218927000D01*
X115643500Y-220747000D02*
X114343500Y-220747000D01*
X131057282Y-218725430D02*
X131057282Y-220025430D01*
X129237282Y-218725430D02*
X129237282Y-220025430D01*
X125836000Y-203380500D02*
X125836000Y-204680500D01*
X127656000Y-203380500D02*
X127656000Y-204680500D01*
X114569782Y-209167930D02*
X115869782Y-209167930D01*
X114569782Y-207347930D02*
X115869782Y-207347930D01*
X124217282Y-213764000D02*
X124217282Y-216004000D01*
X124217282Y-216004000D02*
X128457282Y-216004000D01*
X128457282Y-216004000D02*
X128457282Y-213764000D01*
X128457282Y-213764000D02*
X124217282Y-213764000D01*
X123567282Y-214884000D02*
X124217282Y-214884000D01*
X129107282Y-214884000D02*
X128457282Y-214884000D01*
X124937282Y-213764000D02*
X124937282Y-216004000D01*
X125057282Y-213764000D02*
X125057282Y-216004000D01*
X124817282Y-213764000D02*
X124817282Y-216004000D01*
X124817282Y-211224000D02*
X124817282Y-213464000D01*
X125057282Y-211224000D02*
X125057282Y-213464000D01*
X124937282Y-211224000D02*
X124937282Y-213464000D01*
X129107282Y-212344000D02*
X128457282Y-212344000D01*
X123567282Y-212344000D02*
X124217282Y-212344000D01*
X128457282Y-211224000D02*
X124217282Y-211224000D01*
X128457282Y-213464000D02*
X128457282Y-211224000D01*
X124217282Y-213464000D02*
X128457282Y-213464000D01*
X124217282Y-211224000D02*
X124217282Y-213464000D01*
X135362282Y-223367930D02*
X135362282Y-221067930D01*
X135362282Y-221067930D02*
X142762282Y-221067930D01*
X142762282Y-221067930D02*
X142762282Y-223367930D01*
X142762282Y-226167930D02*
X142762282Y-228467930D01*
X142762282Y-228467930D02*
X135362282Y-228467930D01*
X135362282Y-228467930D02*
X135362282Y-226167930D01*
X88496000Y-213454000D02*
X89156000Y-213454000D01*
X86826000Y-213454000D02*
X87496000Y-213454000D01*
X86836000Y-213454000D02*
X86836000Y-216189000D01*
X89156000Y-214864000D02*
X89156000Y-213454000D01*
X123157282Y-224767930D02*
G75*
G03X123157282Y-224767930I-2600000J0D01*
G01*
X87101000Y-209506500D02*
X87101000Y-208206500D01*
X88921000Y-209506500D02*
X88921000Y-208206500D01*
X86443500Y-238739000D02*
X85143500Y-238739000D01*
X86443500Y-240559000D02*
X85143500Y-240559000D01*
X79106000Y-238739000D02*
X80406000Y-238739000D01*
X79106000Y-240559000D02*
X80406000Y-240559000D01*
X82339500Y-211222000D02*
X83639500Y-211222000D01*
X82339500Y-209402000D02*
X83639500Y-209402000D01*
X135587282Y-232050430D02*
X135587282Y-233350430D01*
X137407282Y-232050430D02*
X137407282Y-233350430D01*
X137407282Y-238087930D02*
X137407282Y-239387930D01*
X135587282Y-238087930D02*
X135587282Y-239387930D01*
X111781000Y-229510430D02*
X111781000Y-230810430D01*
X109961000Y-229510430D02*
X109961000Y-230810430D01*
X106118500Y-225954000D02*
X104818500Y-225954000D01*
X106118500Y-224134000D02*
X104818500Y-224134000D01*
X134028500Y-215794000D02*
X135328500Y-215794000D01*
X134028500Y-213974000D02*
X135328500Y-213974000D01*
X123465000Y-203370500D02*
X123465000Y-204670500D01*
X121645000Y-203370500D02*
X121645000Y-204670500D01*
X114569782Y-213612930D02*
X115869782Y-213612930D01*
X114569782Y-211792930D02*
X115869782Y-211792930D01*
X109876000Y-203146500D02*
X109876000Y-201846500D01*
X108056000Y-203146500D02*
X108056000Y-201846500D01*
D11*
X78886000Y-218499000D02*
X78886000Y-218774000D01*
X84436000Y-218499000D02*
X84436000Y-218854000D01*
X84436000Y-229049000D02*
X84436000Y-228694000D01*
X78886000Y-229049000D02*
X78886000Y-228694000D01*
X78886000Y-218499000D02*
X84436000Y-218499000D01*
X78886000Y-229049000D02*
X84436000Y-229049000D01*
X78886000Y-218774000D02*
X77361000Y-218774000D01*
D10*
X73150000Y-226553000D02*
X66750000Y-226553000D01*
X73150000Y-221503000D02*
X66750000Y-221503000D01*
X73150000Y-221503000D02*
G75*
G02X73150000Y-226553000I0J-2525000D01*
G01*
X66750000Y-221503000D02*
G75*
G03X66750000Y-226553000I0J-2525000D01*
G01*
X107971000Y-229474000D02*
X107971000Y-230774000D01*
X106151000Y-229474000D02*
X106151000Y-230774000D01*
X104861000Y-238674000D02*
X104861000Y-234274000D01*
X109261000Y-238674000D02*
X104861000Y-238674000D01*
X109261000Y-234274000D02*
X109261000Y-238674000D01*
X104861000Y-234274000D02*
X109261000Y-234274000D01*
X86466000Y-202169000D02*
X86466000Y-203469000D01*
X88286000Y-202169000D02*
X88286000Y-203469000D01*
X84016001Y-208336646D02*
X82716001Y-208336646D01*
X84016001Y-206516646D02*
X82716001Y-206516646D01*
D11*
X92954095Y-209636380D02*
X92954095Y-210445904D01*
X93001714Y-210541142D01*
X93049333Y-210588761D01*
X93144571Y-210636380D01*
X93335047Y-210636380D01*
X93430285Y-210588761D01*
X93477904Y-210541142D01*
X93525523Y-210445904D01*
X93525523Y-209636380D01*
X94525523Y-210636380D02*
X93954095Y-210636380D01*
X94239809Y-210636380D02*
X94239809Y-209636380D01*
X94144571Y-209779238D01*
X94049333Y-209874476D01*
X93954095Y-209922095D01*
X70239095Y-227928380D02*
X70810523Y-227928380D01*
X70524809Y-228928380D02*
X70524809Y-227928380D01*
X71143857Y-228928380D02*
X71143857Y-227928380D01*
X71524809Y-227928380D01*
X71620047Y-227976000D01*
X71667666Y-228023619D01*
X71715285Y-228118857D01*
X71715285Y-228261714D01*
X71667666Y-228356952D01*
X71620047Y-228404571D01*
X71524809Y-228452190D01*
X71143857Y-228452190D01*
X72096238Y-228023619D02*
X72143857Y-227976000D01*
X72239095Y-227928380D01*
X72477190Y-227928380D01*
X72572428Y-227976000D01*
X72620047Y-228023619D01*
X72667666Y-228118857D01*
X72667666Y-228214095D01*
X72620047Y-228356952D01*
X72048619Y-228928380D01*
X72667666Y-228928380D01*
X74049095Y-227928380D02*
X74620523Y-227928380D01*
X74334809Y-228928380D02*
X74334809Y-227928380D01*
X74953857Y-228928380D02*
X74953857Y-227928380D01*
X75334809Y-227928380D01*
X75430047Y-227976000D01*
X75477666Y-228023619D01*
X75525285Y-228118857D01*
X75525285Y-228261714D01*
X75477666Y-228356952D01*
X75430047Y-228404571D01*
X75334809Y-228452190D01*
X74953857Y-228452190D01*
X76477666Y-228928380D02*
X75906238Y-228928380D01*
X76191952Y-228928380D02*
X76191952Y-227928380D01*
X76096714Y-228071238D01*
X76001476Y-228166476D01*
X75906238Y-228214095D01*
X115313142Y-206641142D02*
X115265523Y-206688761D01*
X115122666Y-206736380D01*
X115027428Y-206736380D01*
X114884571Y-206688761D01*
X114789333Y-206593523D01*
X114741714Y-206498285D01*
X114694095Y-206307809D01*
X114694095Y-206164952D01*
X114741714Y-205974476D01*
X114789333Y-205879238D01*
X114884571Y-205784000D01*
X115027428Y-205736380D01*
X115122666Y-205736380D01*
X115265523Y-205784000D01*
X115313142Y-205831619D01*
X115694095Y-205831619D02*
X115741714Y-205784000D01*
X115836952Y-205736380D01*
X116075047Y-205736380D01*
X116170285Y-205784000D01*
X116217904Y-205831619D01*
X116265523Y-205926857D01*
X116265523Y-206022095D01*
X116217904Y-206164952D01*
X115646476Y-206736380D01*
X116265523Y-206736380D01*
X116884571Y-205736380D02*
X116979809Y-205736380D01*
X117075047Y-205784000D01*
X117122666Y-205831619D01*
X117170285Y-205926857D01*
X117217904Y-206117333D01*
X117217904Y-206355428D01*
X117170285Y-206545904D01*
X117122666Y-206641142D01*
X117075047Y-206688761D01*
X116979809Y-206736380D01*
X116884571Y-206736380D01*
X116789333Y-206688761D01*
X116741714Y-206641142D01*
X116694095Y-206545904D01*
X116646476Y-206355428D01*
X116646476Y-206117333D01*
X116694095Y-205926857D01*
X116741714Y-205831619D01*
X116789333Y-205784000D01*
X116884571Y-205736380D01*
X88023142Y-199805666D02*
X88070761Y-199853285D01*
X88118380Y-199996142D01*
X88118380Y-200091380D01*
X88070761Y-200234238D01*
X87975523Y-200329476D01*
X87880285Y-200377095D01*
X87689809Y-200424714D01*
X87546952Y-200424714D01*
X87356476Y-200377095D01*
X87261238Y-200329476D01*
X87166000Y-200234238D01*
X87118380Y-200091380D01*
X87118380Y-199996142D01*
X87166000Y-199853285D01*
X87213619Y-199805666D01*
X88118380Y-198853285D02*
X88118380Y-199424714D01*
X88118380Y-199139000D02*
X87118380Y-199139000D01*
X87261238Y-199234238D01*
X87356476Y-199329476D01*
X87404095Y-199424714D01*
X140795615Y-220740072D02*
X140747996Y-220787691D01*
X140605139Y-220835310D01*
X140509901Y-220835310D01*
X140367043Y-220787691D01*
X140271805Y-220692453D01*
X140224186Y-220597215D01*
X140176567Y-220406739D01*
X140176567Y-220263882D01*
X140224186Y-220073406D01*
X140271805Y-219978168D01*
X140367043Y-219882930D01*
X140509901Y-219835310D01*
X140605139Y-219835310D01*
X140747996Y-219882930D01*
X140795615Y-219930549D01*
X141176567Y-219930549D02*
X141224186Y-219882930D01*
X141319424Y-219835310D01*
X141557520Y-219835310D01*
X141652758Y-219882930D01*
X141700377Y-219930549D01*
X141747996Y-220025787D01*
X141747996Y-220121025D01*
X141700377Y-220263882D01*
X141128948Y-220835310D01*
X141747996Y-220835310D01*
X82822833Y-211667142D02*
X82775214Y-211714761D01*
X82632357Y-211762380D01*
X82537119Y-211762380D01*
X82394261Y-211714761D01*
X82299023Y-211619523D01*
X82251404Y-211524285D01*
X82203785Y-211333809D01*
X82203785Y-211190952D01*
X82251404Y-211000476D01*
X82299023Y-210905238D01*
X82394261Y-210810000D01*
X82537119Y-210762380D01*
X82632357Y-210762380D01*
X82775214Y-210810000D01*
X82822833Y-210857619D01*
X83156166Y-210762380D02*
X83775214Y-210762380D01*
X83441880Y-211143333D01*
X83584738Y-211143333D01*
X83679976Y-211190952D01*
X83727595Y-211238571D01*
X83775214Y-211333809D01*
X83775214Y-211571904D01*
X83727595Y-211667142D01*
X83679976Y-211714761D01*
X83584738Y-211762380D01*
X83299023Y-211762380D01*
X83203785Y-211714761D01*
X83156166Y-211667142D01*
X140775615Y-230060072D02*
X140727996Y-230107691D01*
X140585139Y-230155310D01*
X140489901Y-230155310D01*
X140347043Y-230107691D01*
X140251805Y-230012453D01*
X140204186Y-229917215D01*
X140156567Y-229726739D01*
X140156567Y-229583882D01*
X140204186Y-229393406D01*
X140251805Y-229298168D01*
X140347043Y-229202930D01*
X140489901Y-229155310D01*
X140585139Y-229155310D01*
X140727996Y-229202930D01*
X140775615Y-229250549D01*
X141632758Y-229488644D02*
X141632758Y-230155310D01*
X141394662Y-229107691D02*
X141156567Y-229821977D01*
X141775615Y-229821977D01*
X76412142Y-212061166D02*
X76459761Y-212108785D01*
X76507380Y-212251642D01*
X76507380Y-212346880D01*
X76459761Y-212489738D01*
X76364523Y-212584976D01*
X76269285Y-212632595D01*
X76078809Y-212680214D01*
X75935952Y-212680214D01*
X75745476Y-212632595D01*
X75650238Y-212584976D01*
X75555000Y-212489738D01*
X75507380Y-212346880D01*
X75507380Y-212251642D01*
X75555000Y-212108785D01*
X75602619Y-212061166D01*
X75507380Y-211156404D02*
X75507380Y-211632595D01*
X75983571Y-211680214D01*
X75935952Y-211632595D01*
X75888333Y-211537357D01*
X75888333Y-211299261D01*
X75935952Y-211204023D01*
X75983571Y-211156404D01*
X76078809Y-211108785D01*
X76316904Y-211108785D01*
X76412142Y-211156404D01*
X76459761Y-211204023D01*
X76507380Y-211299261D01*
X76507380Y-211537357D01*
X76459761Y-211632595D01*
X76412142Y-211680214D01*
X140775615Y-237045072D02*
X140727996Y-237092691D01*
X140585139Y-237140310D01*
X140489901Y-237140310D01*
X140347043Y-237092691D01*
X140251805Y-236997453D01*
X140204186Y-236902215D01*
X140156567Y-236711739D01*
X140156567Y-236568882D01*
X140204186Y-236378406D01*
X140251805Y-236283168D01*
X140347043Y-236187930D01*
X140489901Y-236140310D01*
X140585139Y-236140310D01*
X140727996Y-236187930D01*
X140775615Y-236235549D01*
X141632758Y-236140310D02*
X141442282Y-236140310D01*
X141347043Y-236187930D01*
X141299424Y-236235549D01*
X141204186Y-236378406D01*
X141156567Y-236568882D01*
X141156567Y-236949834D01*
X141204186Y-237045072D01*
X141251805Y-237092691D01*
X141347043Y-237140310D01*
X141537520Y-237140310D01*
X141632758Y-237092691D01*
X141680377Y-237045072D01*
X141727996Y-236949834D01*
X141727996Y-236711739D01*
X141680377Y-236616501D01*
X141632758Y-236568882D01*
X141537520Y-236521263D01*
X141347043Y-236521263D01*
X141251805Y-236568882D01*
X141204186Y-236616501D01*
X141156567Y-236711739D01*
X91341833Y-227451142D02*
X91294214Y-227498761D01*
X91151357Y-227546380D01*
X91056119Y-227546380D01*
X90913261Y-227498761D01*
X90818023Y-227403523D01*
X90770404Y-227308285D01*
X90722785Y-227117809D01*
X90722785Y-226974952D01*
X90770404Y-226784476D01*
X90818023Y-226689238D01*
X90913261Y-226594000D01*
X91056119Y-226546380D01*
X91151357Y-226546380D01*
X91294214Y-226594000D01*
X91341833Y-226641619D01*
X91675166Y-226546380D02*
X92341833Y-226546380D01*
X91913261Y-227546380D01*
X91341833Y-220176142D02*
X91294214Y-220223761D01*
X91151357Y-220271380D01*
X91056119Y-220271380D01*
X90913261Y-220223761D01*
X90818023Y-220128523D01*
X90770404Y-220033285D01*
X90722785Y-219842809D01*
X90722785Y-219699952D01*
X90770404Y-219509476D01*
X90818023Y-219414238D01*
X90913261Y-219319000D01*
X91056119Y-219271380D01*
X91151357Y-219271380D01*
X91294214Y-219319000D01*
X91341833Y-219366619D01*
X91913261Y-219699952D02*
X91818023Y-219652333D01*
X91770404Y-219604714D01*
X91722785Y-219509476D01*
X91722785Y-219461857D01*
X91770404Y-219366619D01*
X91818023Y-219319000D01*
X91913261Y-219271380D01*
X92103738Y-219271380D01*
X92198976Y-219319000D01*
X92246595Y-219366619D01*
X92294214Y-219461857D01*
X92294214Y-219509476D01*
X92246595Y-219604714D01*
X92198976Y-219652333D01*
X92103738Y-219699952D01*
X91913261Y-219699952D01*
X91818023Y-219747571D01*
X91770404Y-219795190D01*
X91722785Y-219890428D01*
X91722785Y-220080904D01*
X91770404Y-220176142D01*
X91818023Y-220223761D01*
X91913261Y-220271380D01*
X92103738Y-220271380D01*
X92198976Y-220223761D01*
X92246595Y-220176142D01*
X92294214Y-220080904D01*
X92294214Y-219890428D01*
X92246595Y-219795190D01*
X92198976Y-219747571D01*
X92103738Y-219699952D01*
X97999333Y-211776142D02*
X97951714Y-211823761D01*
X97808857Y-211871380D01*
X97713619Y-211871380D01*
X97570761Y-211823761D01*
X97475523Y-211728523D01*
X97427904Y-211633285D01*
X97380285Y-211442809D01*
X97380285Y-211299952D01*
X97427904Y-211109476D01*
X97475523Y-211014238D01*
X97570761Y-210919000D01*
X97713619Y-210871380D01*
X97808857Y-210871380D01*
X97951714Y-210919000D01*
X97999333Y-210966619D01*
X98475523Y-211871380D02*
X98666000Y-211871380D01*
X98761238Y-211823761D01*
X98808857Y-211776142D01*
X98904095Y-211633285D01*
X98951714Y-211442809D01*
X98951714Y-211061857D01*
X98904095Y-210966619D01*
X98856476Y-210919000D01*
X98761238Y-210871380D01*
X98570761Y-210871380D01*
X98475523Y-210919000D01*
X98427904Y-210966619D01*
X98380285Y-211061857D01*
X98380285Y-211299952D01*
X98427904Y-211395190D01*
X98475523Y-211442809D01*
X98570761Y-211490428D01*
X98761238Y-211490428D01*
X98856476Y-211442809D01*
X98904095Y-211395190D01*
X98951714Y-211299952D01*
X96873142Y-227881142D02*
X96825523Y-227928761D01*
X96682666Y-227976380D01*
X96587428Y-227976380D01*
X96444571Y-227928761D01*
X96349333Y-227833523D01*
X96301714Y-227738285D01*
X96254095Y-227547809D01*
X96254095Y-227404952D01*
X96301714Y-227214476D01*
X96349333Y-227119238D01*
X96444571Y-227024000D01*
X96587428Y-226976380D01*
X96682666Y-226976380D01*
X96825523Y-227024000D01*
X96873142Y-227071619D01*
X97825523Y-227976380D02*
X97254095Y-227976380D01*
X97539809Y-227976380D02*
X97539809Y-226976380D01*
X97444571Y-227119238D01*
X97349333Y-227214476D01*
X97254095Y-227262095D01*
X98444571Y-226976380D02*
X98539809Y-226976380D01*
X98635047Y-227024000D01*
X98682666Y-227071619D01*
X98730285Y-227166857D01*
X98777904Y-227357333D01*
X98777904Y-227595428D01*
X98730285Y-227785904D01*
X98682666Y-227881142D01*
X98635047Y-227928761D01*
X98539809Y-227976380D01*
X98444571Y-227976380D01*
X98349333Y-227928761D01*
X98301714Y-227881142D01*
X98254095Y-227785904D01*
X98206476Y-227595428D01*
X98206476Y-227357333D01*
X98254095Y-227166857D01*
X98301714Y-227071619D01*
X98349333Y-227024000D01*
X98444571Y-226976380D01*
X69715142Y-221355142D02*
X69667523Y-221402761D01*
X69524666Y-221450380D01*
X69429428Y-221450380D01*
X69286571Y-221402761D01*
X69191333Y-221307523D01*
X69143714Y-221212285D01*
X69096095Y-221021809D01*
X69096095Y-220878952D01*
X69143714Y-220688476D01*
X69191333Y-220593238D01*
X69286571Y-220498000D01*
X69429428Y-220450380D01*
X69524666Y-220450380D01*
X69667523Y-220498000D01*
X69715142Y-220545619D01*
X70667523Y-221450380D02*
X70096095Y-221450380D01*
X70381809Y-221450380D02*
X70381809Y-220450380D01*
X70286571Y-220593238D01*
X70191333Y-220688476D01*
X70096095Y-220736095D01*
X71619904Y-221450380D02*
X71048476Y-221450380D01*
X71334190Y-221450380D02*
X71334190Y-220450380D01*
X71238952Y-220593238D01*
X71143714Y-220688476D01*
X71048476Y-220736095D01*
X94228142Y-231089357D02*
X94275761Y-231136976D01*
X94323380Y-231279833D01*
X94323380Y-231375071D01*
X94275761Y-231517928D01*
X94180523Y-231613166D01*
X94085285Y-231660785D01*
X93894809Y-231708404D01*
X93751952Y-231708404D01*
X93561476Y-231660785D01*
X93466238Y-231613166D01*
X93371000Y-231517928D01*
X93323380Y-231375071D01*
X93323380Y-231279833D01*
X93371000Y-231136976D01*
X93418619Y-231089357D01*
X94323380Y-230136976D02*
X94323380Y-230708404D01*
X94323380Y-230422690D02*
X93323380Y-230422690D01*
X93466238Y-230517928D01*
X93561476Y-230613166D01*
X93609095Y-230708404D01*
X93418619Y-229756023D02*
X93371000Y-229708404D01*
X93323380Y-229613166D01*
X93323380Y-229375071D01*
X93371000Y-229279833D01*
X93418619Y-229232214D01*
X93513857Y-229184595D01*
X93609095Y-229184595D01*
X93751952Y-229232214D01*
X94323380Y-229803642D01*
X94323380Y-229184595D01*
X91688142Y-231079357D02*
X91735761Y-231126976D01*
X91783380Y-231269833D01*
X91783380Y-231365071D01*
X91735761Y-231507928D01*
X91640523Y-231603166D01*
X91545285Y-231650785D01*
X91354809Y-231698404D01*
X91211952Y-231698404D01*
X91021476Y-231650785D01*
X90926238Y-231603166D01*
X90831000Y-231507928D01*
X90783380Y-231365071D01*
X90783380Y-231269833D01*
X90831000Y-231126976D01*
X90878619Y-231079357D01*
X91783380Y-230126976D02*
X91783380Y-230698404D01*
X91783380Y-230412690D02*
X90783380Y-230412690D01*
X90926238Y-230507928D01*
X91021476Y-230603166D01*
X91069095Y-230698404D01*
X90783380Y-229793642D02*
X90783380Y-229174595D01*
X91164333Y-229507928D01*
X91164333Y-229365071D01*
X91211952Y-229269833D01*
X91259571Y-229222214D01*
X91354809Y-229174595D01*
X91592904Y-229174595D01*
X91688142Y-229222214D01*
X91735761Y-229269833D01*
X91783380Y-229365071D01*
X91783380Y-229650785D01*
X91735761Y-229746023D01*
X91688142Y-229793642D01*
X133489142Y-234317857D02*
X133536761Y-234365476D01*
X133584380Y-234508333D01*
X133584380Y-234603571D01*
X133536761Y-234746428D01*
X133441523Y-234841666D01*
X133346285Y-234889285D01*
X133155809Y-234936904D01*
X133012952Y-234936904D01*
X132822476Y-234889285D01*
X132727238Y-234841666D01*
X132632000Y-234746428D01*
X132584380Y-234603571D01*
X132584380Y-234508333D01*
X132632000Y-234365476D01*
X132679619Y-234317857D01*
X133584380Y-233365476D02*
X133584380Y-233936904D01*
X133584380Y-233651190D02*
X132584380Y-233651190D01*
X132727238Y-233746428D01*
X132822476Y-233841666D01*
X132870095Y-233936904D01*
X132917714Y-232508333D02*
X133584380Y-232508333D01*
X132536761Y-232746428D02*
X133251047Y-232984523D01*
X133251047Y-232365476D01*
X114576924Y-234160072D02*
X114529305Y-234207691D01*
X114386448Y-234255310D01*
X114291210Y-234255310D01*
X114148353Y-234207691D01*
X114053115Y-234112453D01*
X114005496Y-234017215D01*
X113957877Y-233826739D01*
X113957877Y-233683882D01*
X114005496Y-233493406D01*
X114053115Y-233398168D01*
X114148353Y-233302930D01*
X114291210Y-233255310D01*
X114386448Y-233255310D01*
X114529305Y-233302930D01*
X114576924Y-233350549D01*
X115529305Y-234255310D02*
X114957877Y-234255310D01*
X115243591Y-234255310D02*
X115243591Y-233255310D01*
X115148353Y-233398168D01*
X115053115Y-233493406D01*
X114957877Y-233541025D01*
X116434067Y-233255310D02*
X115957877Y-233255310D01*
X115910258Y-233731501D01*
X115957877Y-233683882D01*
X116053115Y-233636263D01*
X116291210Y-233636263D01*
X116386448Y-233683882D01*
X116434067Y-233731501D01*
X116481686Y-233826739D01*
X116481686Y-234064834D01*
X116434067Y-234160072D01*
X116386448Y-234207691D01*
X116291210Y-234255310D01*
X116053115Y-234255310D01*
X115957877Y-234207691D01*
X115910258Y-234160072D01*
X121980642Y-222244142D02*
X121933023Y-222291761D01*
X121790166Y-222339380D01*
X121694928Y-222339380D01*
X121552071Y-222291761D01*
X121456833Y-222196523D01*
X121409214Y-222101285D01*
X121361595Y-221910809D01*
X121361595Y-221767952D01*
X121409214Y-221577476D01*
X121456833Y-221482238D01*
X121552071Y-221387000D01*
X121694928Y-221339380D01*
X121790166Y-221339380D01*
X121933023Y-221387000D01*
X121980642Y-221434619D01*
X122933023Y-222339380D02*
X122361595Y-222339380D01*
X122647309Y-222339380D02*
X122647309Y-221339380D01*
X122552071Y-221482238D01*
X122456833Y-221577476D01*
X122361595Y-221625095D01*
X123790166Y-221339380D02*
X123599690Y-221339380D01*
X123504452Y-221387000D01*
X123456833Y-221434619D01*
X123361595Y-221577476D01*
X123313976Y-221767952D01*
X123313976Y-222148904D01*
X123361595Y-222244142D01*
X123409214Y-222291761D01*
X123504452Y-222339380D01*
X123694928Y-222339380D01*
X123790166Y-222291761D01*
X123837785Y-222244142D01*
X123885404Y-222148904D01*
X123885404Y-221910809D01*
X123837785Y-221815571D01*
X123790166Y-221767952D01*
X123694928Y-221720333D01*
X123504452Y-221720333D01*
X123409214Y-221767952D01*
X123361595Y-221815571D01*
X123313976Y-221910809D01*
X114350642Y-222244142D02*
X114303023Y-222291761D01*
X114160166Y-222339380D01*
X114064928Y-222339380D01*
X113922071Y-222291761D01*
X113826833Y-222196523D01*
X113779214Y-222101285D01*
X113731595Y-221910809D01*
X113731595Y-221767952D01*
X113779214Y-221577476D01*
X113826833Y-221482238D01*
X113922071Y-221387000D01*
X114064928Y-221339380D01*
X114160166Y-221339380D01*
X114303023Y-221387000D01*
X114350642Y-221434619D01*
X115303023Y-222339380D02*
X114731595Y-222339380D01*
X115017309Y-222339380D02*
X115017309Y-221339380D01*
X114922071Y-221482238D01*
X114826833Y-221577476D01*
X114731595Y-221625095D01*
X115636357Y-221339380D02*
X116303023Y-221339380D01*
X115874452Y-222339380D01*
X132554424Y-220018287D02*
X132602043Y-220065906D01*
X132649662Y-220208763D01*
X132649662Y-220304001D01*
X132602043Y-220446858D01*
X132506805Y-220542096D01*
X132411567Y-220589715D01*
X132221091Y-220637334D01*
X132078234Y-220637334D01*
X131887758Y-220589715D01*
X131792520Y-220542096D01*
X131697282Y-220446858D01*
X131649662Y-220304001D01*
X131649662Y-220208763D01*
X131697282Y-220065906D01*
X131744901Y-220018287D01*
X132649662Y-219065906D02*
X132649662Y-219637334D01*
X132649662Y-219351620D02*
X131649662Y-219351620D01*
X131792520Y-219446858D01*
X131887758Y-219542096D01*
X131935377Y-219637334D01*
X132078234Y-218494477D02*
X132030615Y-218589715D01*
X131982996Y-218637334D01*
X131887758Y-218684953D01*
X131840139Y-218684953D01*
X131744901Y-218637334D01*
X131697282Y-218589715D01*
X131649662Y-218494477D01*
X131649662Y-218304001D01*
X131697282Y-218208763D01*
X131744901Y-218161144D01*
X131840139Y-218113525D01*
X131887758Y-218113525D01*
X131982996Y-218161144D01*
X132030615Y-218208763D01*
X132078234Y-218304001D01*
X132078234Y-218494477D01*
X132125853Y-218589715D01*
X132173472Y-218637334D01*
X132268710Y-218684953D01*
X132459186Y-218684953D01*
X132554424Y-218637334D01*
X132602043Y-218589715D01*
X132649662Y-218494477D01*
X132649662Y-218304001D01*
X132602043Y-218208763D01*
X132554424Y-218161144D01*
X132459186Y-218113525D01*
X132268710Y-218113525D01*
X132173472Y-218161144D01*
X132125853Y-218208763D01*
X132078234Y-218304001D01*
X129153142Y-204673357D02*
X129200761Y-204720976D01*
X129248380Y-204863833D01*
X129248380Y-204959071D01*
X129200761Y-205101928D01*
X129105523Y-205197166D01*
X129010285Y-205244785D01*
X128819809Y-205292404D01*
X128676952Y-205292404D01*
X128486476Y-205244785D01*
X128391238Y-205197166D01*
X128296000Y-205101928D01*
X128248380Y-204959071D01*
X128248380Y-204863833D01*
X128296000Y-204720976D01*
X128343619Y-204673357D01*
X129248380Y-203720976D02*
X129248380Y-204292404D01*
X129248380Y-204006690D02*
X128248380Y-204006690D01*
X128391238Y-204101928D01*
X128486476Y-204197166D01*
X128534095Y-204292404D01*
X129248380Y-203244785D02*
X129248380Y-203054309D01*
X129200761Y-202959071D01*
X129153142Y-202911452D01*
X129010285Y-202816214D01*
X128819809Y-202768595D01*
X128438857Y-202768595D01*
X128343619Y-202816214D01*
X128296000Y-202863833D01*
X128248380Y-202959071D01*
X128248380Y-203149547D01*
X128296000Y-203244785D01*
X128343619Y-203292404D01*
X128438857Y-203340023D01*
X128676952Y-203340023D01*
X128772190Y-203292404D01*
X128819809Y-203244785D01*
X128867428Y-203149547D01*
X128867428Y-202959071D01*
X128819809Y-202863833D01*
X128772190Y-202816214D01*
X128676952Y-202768595D01*
X114576924Y-206565072D02*
X114529305Y-206612691D01*
X114386448Y-206660310D01*
X114291210Y-206660310D01*
X114148353Y-206612691D01*
X114053115Y-206517453D01*
X114005496Y-206422215D01*
X113957877Y-206231739D01*
X113957877Y-206088882D01*
X114005496Y-205898406D01*
X114053115Y-205803168D01*
X114148353Y-205707930D01*
X114291210Y-205660310D01*
X114386448Y-205660310D01*
X114529305Y-205707930D01*
X114576924Y-205755549D01*
X114957877Y-205755549D02*
X115005496Y-205707930D01*
X115100734Y-205660310D01*
X115338829Y-205660310D01*
X115434067Y-205707930D01*
X115481686Y-205755549D01*
X115529305Y-205850787D01*
X115529305Y-205946025D01*
X115481686Y-206088882D01*
X114910258Y-206660310D01*
X115529305Y-206660310D01*
X116481686Y-206660310D02*
X115910258Y-206660310D01*
X116195972Y-206660310D02*
X116195972Y-205660310D01*
X116100734Y-205803168D01*
X116005496Y-205898406D01*
X115910258Y-205946025D01*
X125599186Y-213216380D02*
X125599186Y-212216380D01*
X125837282Y-212216380D01*
X125980139Y-212264000D01*
X126075377Y-212359238D01*
X126122996Y-212454476D01*
X126170615Y-212644952D01*
X126170615Y-212787809D01*
X126122996Y-212978285D01*
X126075377Y-213073523D01*
X125980139Y-213168761D01*
X125837282Y-213216380D01*
X125599186Y-213216380D01*
X127122996Y-213216380D02*
X126551567Y-213216380D01*
X126837282Y-213216380D02*
X126837282Y-212216380D01*
X126742043Y-212359238D01*
X126646805Y-212454476D01*
X126551567Y-212502095D01*
X122265377Y-213536380D02*
X122265377Y-212536380D01*
X122836805Y-213536380D02*
X122408234Y-212964952D01*
X122836805Y-212536380D02*
X122265377Y-213107809D01*
X125599186Y-210676380D02*
X125599186Y-209676380D01*
X125837282Y-209676380D01*
X125980139Y-209724000D01*
X126075377Y-209819238D01*
X126122996Y-209914476D01*
X126170615Y-210104952D01*
X126170615Y-210247809D01*
X126122996Y-210438285D01*
X126075377Y-210533523D01*
X125980139Y-210628761D01*
X125837282Y-210676380D01*
X125599186Y-210676380D01*
X126551567Y-209771619D02*
X126599186Y-209724000D01*
X126694424Y-209676380D01*
X126932520Y-209676380D01*
X127027758Y-209724000D01*
X127075377Y-209771619D01*
X127122996Y-209866857D01*
X127122996Y-209962095D01*
X127075377Y-210104952D01*
X126503948Y-210676380D01*
X127122996Y-210676380D01*
X122265377Y-210996380D02*
X122265377Y-209996380D01*
X122836805Y-210996380D02*
X122408234Y-210424952D01*
X122836805Y-209996380D02*
X122265377Y-210567809D01*
X138895615Y-229670310D02*
X138419424Y-229670310D01*
X138419424Y-228670310D01*
X139752758Y-229670310D02*
X139181329Y-229670310D01*
X139467043Y-229670310D02*
X139467043Y-228670310D01*
X139371805Y-228813168D01*
X139276567Y-228908406D01*
X139181329Y-228956025D01*
X86543619Y-214284238D02*
X86496000Y-214379476D01*
X86400761Y-214474714D01*
X86257904Y-214617571D01*
X86210285Y-214712809D01*
X86210285Y-214808047D01*
X86448380Y-214760428D02*
X86400761Y-214855666D01*
X86305523Y-214950904D01*
X86115047Y-214998523D01*
X85781714Y-214998523D01*
X85591238Y-214950904D01*
X85496000Y-214855666D01*
X85448380Y-214760428D01*
X85448380Y-214569952D01*
X85496000Y-214474714D01*
X85591238Y-214379476D01*
X85781714Y-214331857D01*
X86115047Y-214331857D01*
X86305523Y-214379476D01*
X86400761Y-214474714D01*
X86448380Y-214569952D01*
X86448380Y-214760428D01*
X86448380Y-213379476D02*
X86448380Y-213950904D01*
X86448380Y-213665190D02*
X85448380Y-213665190D01*
X85591238Y-213760428D01*
X85686476Y-213855666D01*
X85734095Y-213950904D01*
X120462043Y-221365549D02*
X120366805Y-221317930D01*
X120271567Y-221222691D01*
X120128710Y-221079834D01*
X120033472Y-221032215D01*
X119938234Y-221032215D01*
X119985853Y-221270310D02*
X119890615Y-221222691D01*
X119795377Y-221127453D01*
X119747758Y-220936977D01*
X119747758Y-220603644D01*
X119795377Y-220413168D01*
X119890615Y-220317930D01*
X119985853Y-220270310D01*
X120176329Y-220270310D01*
X120271567Y-220317930D01*
X120366805Y-220413168D01*
X120414424Y-220603644D01*
X120414424Y-220936977D01*
X120366805Y-221127453D01*
X120271567Y-221222691D01*
X120176329Y-221270310D01*
X119985853Y-221270310D01*
X120795377Y-220365549D02*
X120842996Y-220317930D01*
X120938234Y-220270310D01*
X121176329Y-220270310D01*
X121271567Y-220317930D01*
X121319186Y-220365549D01*
X121366805Y-220460787D01*
X121366805Y-220556025D01*
X121319186Y-220698882D01*
X120747758Y-221270310D01*
X121366805Y-221270310D01*
X86413380Y-209023166D02*
X85937190Y-209356500D01*
X86413380Y-209594595D02*
X85413380Y-209594595D01*
X85413380Y-209213642D01*
X85461000Y-209118404D01*
X85508619Y-209070785D01*
X85603857Y-209023166D01*
X85746714Y-209023166D01*
X85841952Y-209070785D01*
X85889571Y-209118404D01*
X85937190Y-209213642D01*
X85937190Y-209594595D01*
X86413380Y-208070785D02*
X86413380Y-208642214D01*
X86413380Y-208356500D02*
X85413380Y-208356500D01*
X85556238Y-208451738D01*
X85651476Y-208546976D01*
X85699095Y-208642214D01*
X85626833Y-242151380D02*
X85293500Y-241675190D01*
X85055404Y-242151380D02*
X85055404Y-241151380D01*
X85436357Y-241151380D01*
X85531595Y-241199000D01*
X85579214Y-241246619D01*
X85626833Y-241341857D01*
X85626833Y-241484714D01*
X85579214Y-241579952D01*
X85531595Y-241627571D01*
X85436357Y-241675190D01*
X85055404Y-241675190D01*
X86007785Y-241246619D02*
X86055404Y-241199000D01*
X86150642Y-241151380D01*
X86388738Y-241151380D01*
X86483976Y-241199000D01*
X86531595Y-241246619D01*
X86579214Y-241341857D01*
X86579214Y-241437095D01*
X86531595Y-241579952D01*
X85960166Y-242151380D01*
X86579214Y-242151380D01*
X79589333Y-238051380D02*
X79256000Y-237575190D01*
X79017904Y-238051380D02*
X79017904Y-237051380D01*
X79398857Y-237051380D01*
X79494095Y-237099000D01*
X79541714Y-237146619D01*
X79589333Y-237241857D01*
X79589333Y-237384714D01*
X79541714Y-237479952D01*
X79494095Y-237527571D01*
X79398857Y-237575190D01*
X79017904Y-237575190D01*
X79922666Y-237051380D02*
X80541714Y-237051380D01*
X80208380Y-237432333D01*
X80351238Y-237432333D01*
X80446476Y-237479952D01*
X80494095Y-237527571D01*
X80541714Y-237622809D01*
X80541714Y-237860904D01*
X80494095Y-237956142D01*
X80446476Y-238003761D01*
X80351238Y-238051380D01*
X80065523Y-238051380D01*
X79970285Y-238003761D01*
X79922666Y-237956142D01*
X82822833Y-208714380D02*
X82489500Y-208238190D01*
X82251404Y-208714380D02*
X82251404Y-207714380D01*
X82632357Y-207714380D01*
X82727595Y-207762000D01*
X82775214Y-207809619D01*
X82822833Y-207904857D01*
X82822833Y-208047714D01*
X82775214Y-208142952D01*
X82727595Y-208190571D01*
X82632357Y-208238190D01*
X82251404Y-208238190D01*
X83679976Y-208047714D02*
X83679976Y-208714380D01*
X83441880Y-207666761D02*
X83203785Y-208381047D01*
X83822833Y-208381047D01*
X138999662Y-232867096D02*
X138523472Y-233200430D01*
X138999662Y-233438525D02*
X137999662Y-233438525D01*
X137999662Y-233057572D01*
X138047282Y-232962334D01*
X138094901Y-232914715D01*
X138190139Y-232867096D01*
X138332996Y-232867096D01*
X138428234Y-232914715D01*
X138475853Y-232962334D01*
X138523472Y-233057572D01*
X138523472Y-233438525D01*
X137999662Y-231962334D02*
X137999662Y-232438525D01*
X138475853Y-232486144D01*
X138428234Y-232438525D01*
X138380615Y-232343287D01*
X138380615Y-232105191D01*
X138428234Y-232009953D01*
X138475853Y-231962334D01*
X138571091Y-231914715D01*
X138809186Y-231914715D01*
X138904424Y-231962334D01*
X138952043Y-232009953D01*
X138999662Y-232105191D01*
X138999662Y-232343287D01*
X138952043Y-232438525D01*
X138904424Y-232486144D01*
X138999662Y-238904596D02*
X138523472Y-239237930D01*
X138999662Y-239476025D02*
X137999662Y-239476025D01*
X137999662Y-239095072D01*
X138047282Y-238999834D01*
X138094901Y-238952215D01*
X138190139Y-238904596D01*
X138332996Y-238904596D01*
X138428234Y-238952215D01*
X138475853Y-238999834D01*
X138523472Y-239095072D01*
X138523472Y-239476025D01*
X137999662Y-238047453D02*
X137999662Y-238237930D01*
X138047282Y-238333168D01*
X138094901Y-238380787D01*
X138237758Y-238476025D01*
X138428234Y-238523644D01*
X138809186Y-238523644D01*
X138904424Y-238476025D01*
X138952043Y-238428406D01*
X138999662Y-238333168D01*
X138999662Y-238142691D01*
X138952043Y-238047453D01*
X138904424Y-237999834D01*
X138809186Y-237952215D01*
X138571091Y-237952215D01*
X138475853Y-237999834D01*
X138428234Y-238047453D01*
X138380615Y-238142691D01*
X138380615Y-238333168D01*
X138428234Y-238428406D01*
X138475853Y-238476025D01*
X138571091Y-238523644D01*
X113373380Y-230327096D02*
X112897190Y-230660430D01*
X113373380Y-230898525D02*
X112373380Y-230898525D01*
X112373380Y-230517572D01*
X112421000Y-230422334D01*
X112468619Y-230374715D01*
X112563857Y-230327096D01*
X112706714Y-230327096D01*
X112801952Y-230374715D01*
X112849571Y-230422334D01*
X112897190Y-230517572D01*
X112897190Y-230898525D01*
X112373380Y-229993763D02*
X112373380Y-229327096D01*
X113373380Y-229755668D01*
X105301833Y-227546380D02*
X104968500Y-227070190D01*
X104730404Y-227546380D02*
X104730404Y-226546380D01*
X105111357Y-226546380D01*
X105206595Y-226594000D01*
X105254214Y-226641619D01*
X105301833Y-226736857D01*
X105301833Y-226879714D01*
X105254214Y-226974952D01*
X105206595Y-227022571D01*
X105111357Y-227070190D01*
X104730404Y-227070190D01*
X105873261Y-226974952D02*
X105778023Y-226927333D01*
X105730404Y-226879714D01*
X105682785Y-226784476D01*
X105682785Y-226736857D01*
X105730404Y-226641619D01*
X105778023Y-226594000D01*
X105873261Y-226546380D01*
X106063738Y-226546380D01*
X106158976Y-226594000D01*
X106206595Y-226641619D01*
X106254214Y-226736857D01*
X106254214Y-226784476D01*
X106206595Y-226879714D01*
X106158976Y-226927333D01*
X106063738Y-226974952D01*
X105873261Y-226974952D01*
X105778023Y-227022571D01*
X105730404Y-227070190D01*
X105682785Y-227165428D01*
X105682785Y-227355904D01*
X105730404Y-227451142D01*
X105778023Y-227498761D01*
X105873261Y-227546380D01*
X106063738Y-227546380D01*
X106158976Y-227498761D01*
X106206595Y-227451142D01*
X106254214Y-227355904D01*
X106254214Y-227165428D01*
X106206595Y-227070190D01*
X106158976Y-227022571D01*
X106063738Y-226974952D01*
X134511833Y-213286380D02*
X134178500Y-212810190D01*
X133940404Y-213286380D02*
X133940404Y-212286380D01*
X134321357Y-212286380D01*
X134416595Y-212334000D01*
X134464214Y-212381619D01*
X134511833Y-212476857D01*
X134511833Y-212619714D01*
X134464214Y-212714952D01*
X134416595Y-212762571D01*
X134321357Y-212810190D01*
X133940404Y-212810190D01*
X134988023Y-213286380D02*
X135178500Y-213286380D01*
X135273738Y-213238761D01*
X135321357Y-213191142D01*
X135416595Y-213048285D01*
X135464214Y-212857809D01*
X135464214Y-212476857D01*
X135416595Y-212381619D01*
X135368976Y-212334000D01*
X135273738Y-212286380D01*
X135083261Y-212286380D01*
X134988023Y-212334000D01*
X134940404Y-212381619D01*
X134892785Y-212476857D01*
X134892785Y-212714952D01*
X134940404Y-212810190D01*
X134988023Y-212857809D01*
X135083261Y-212905428D01*
X135273738Y-212905428D01*
X135368976Y-212857809D01*
X135416595Y-212810190D01*
X135464214Y-212714952D01*
X125057380Y-204663357D02*
X124581190Y-204996690D01*
X125057380Y-205234785D02*
X124057380Y-205234785D01*
X124057380Y-204853833D01*
X124105000Y-204758595D01*
X124152619Y-204710976D01*
X124247857Y-204663357D01*
X124390714Y-204663357D01*
X124485952Y-204710976D01*
X124533571Y-204758595D01*
X124581190Y-204853833D01*
X124581190Y-205234785D01*
X125057380Y-203710976D02*
X125057380Y-204282404D01*
X125057380Y-203996690D02*
X124057380Y-203996690D01*
X124200238Y-204091928D01*
X124295476Y-204187166D01*
X124343095Y-204282404D01*
X124057380Y-203091928D02*
X124057380Y-202996690D01*
X124105000Y-202901452D01*
X124152619Y-202853833D01*
X124247857Y-202806214D01*
X124438333Y-202758595D01*
X124676428Y-202758595D01*
X124866904Y-202806214D01*
X124962142Y-202853833D01*
X125009761Y-202901452D01*
X125057380Y-202996690D01*
X125057380Y-203091928D01*
X125009761Y-203187166D01*
X124962142Y-203234785D01*
X124866904Y-203282404D01*
X124676428Y-203330023D01*
X124438333Y-203330023D01*
X124247857Y-203282404D01*
X124152619Y-203234785D01*
X124105000Y-203187166D01*
X124057380Y-203091928D01*
X114576924Y-211105310D02*
X114243591Y-210629120D01*
X114005496Y-211105310D02*
X114005496Y-210105310D01*
X114386448Y-210105310D01*
X114481686Y-210152930D01*
X114529305Y-210200549D01*
X114576924Y-210295787D01*
X114576924Y-210438644D01*
X114529305Y-210533882D01*
X114481686Y-210581501D01*
X114386448Y-210629120D01*
X114005496Y-210629120D01*
X115529305Y-211105310D02*
X114957877Y-211105310D01*
X115243591Y-211105310D02*
X115243591Y-210105310D01*
X115148353Y-210248168D01*
X115053115Y-210343406D01*
X114957877Y-210391025D01*
X116481686Y-211105310D02*
X115910258Y-211105310D01*
X116195972Y-211105310D02*
X116195972Y-210105310D01*
X116100734Y-210248168D01*
X116005496Y-210343406D01*
X115910258Y-210391025D01*
X107368380Y-203139357D02*
X106892190Y-203472690D01*
X107368380Y-203710785D02*
X106368380Y-203710785D01*
X106368380Y-203329833D01*
X106416000Y-203234595D01*
X106463619Y-203186976D01*
X106558857Y-203139357D01*
X106701714Y-203139357D01*
X106796952Y-203186976D01*
X106844571Y-203234595D01*
X106892190Y-203329833D01*
X106892190Y-203710785D01*
X107368380Y-202186976D02*
X107368380Y-202758404D01*
X107368380Y-202472690D02*
X106368380Y-202472690D01*
X106511238Y-202567928D01*
X106606476Y-202663166D01*
X106654095Y-202758404D01*
X106463619Y-201806023D02*
X106416000Y-201758404D01*
X106368380Y-201663166D01*
X106368380Y-201425071D01*
X106416000Y-201329833D01*
X106463619Y-201282214D01*
X106558857Y-201234595D01*
X106654095Y-201234595D01*
X106796952Y-201282214D01*
X107368380Y-201853642D01*
X107368380Y-201234595D01*
X80899095Y-217026380D02*
X80899095Y-217835904D01*
X80946714Y-217931142D01*
X80994333Y-217978761D01*
X81089571Y-218026380D01*
X81280047Y-218026380D01*
X81375285Y-217978761D01*
X81422904Y-217931142D01*
X81470523Y-217835904D01*
X81470523Y-217026380D01*
X81899095Y-217121619D02*
X81946714Y-217074000D01*
X82041952Y-217026380D01*
X82280047Y-217026380D01*
X82375285Y-217074000D01*
X82422904Y-217121619D01*
X82470523Y-217216857D01*
X82470523Y-217312095D01*
X82422904Y-217454952D01*
X81851476Y-218026380D01*
X82470523Y-218026380D01*
X69473809Y-227529190D02*
X69473809Y-228005380D01*
X69140476Y-227005380D02*
X69473809Y-227529190D01*
X69807142Y-227005380D01*
X70664285Y-228005380D02*
X70092857Y-228005380D01*
X70378571Y-228005380D02*
X70378571Y-227005380D01*
X70283333Y-227148238D01*
X70188095Y-227243476D01*
X70092857Y-227291095D01*
X109468142Y-230766857D02*
X109515761Y-230814476D01*
X109563380Y-230957333D01*
X109563380Y-231052571D01*
X109515761Y-231195428D01*
X109420523Y-231290666D01*
X109325285Y-231338285D01*
X109134809Y-231385904D01*
X108991952Y-231385904D01*
X108801476Y-231338285D01*
X108706238Y-231290666D01*
X108611000Y-231195428D01*
X108563380Y-231052571D01*
X108563380Y-230957333D01*
X108611000Y-230814476D01*
X108658619Y-230766857D01*
X108658619Y-230385904D02*
X108611000Y-230338285D01*
X108563380Y-230243047D01*
X108563380Y-230004952D01*
X108611000Y-229909714D01*
X108658619Y-229862095D01*
X108753857Y-229814476D01*
X108849095Y-229814476D01*
X108991952Y-229862095D01*
X109563380Y-230433523D01*
X109563380Y-229814476D01*
X108658619Y-229433523D02*
X108611000Y-229385904D01*
X108563380Y-229290666D01*
X108563380Y-229052571D01*
X108611000Y-228957333D01*
X108658619Y-228909714D01*
X108753857Y-228862095D01*
X108849095Y-228862095D01*
X108991952Y-228909714D01*
X109563380Y-229481142D01*
X109563380Y-228862095D01*
X105799095Y-233028380D02*
X106370523Y-233028380D01*
X106084809Y-234028380D02*
X106084809Y-233028380D01*
X106703857Y-234028380D02*
X106703857Y-233028380D01*
X107084809Y-233028380D01*
X107180047Y-233076000D01*
X107227666Y-233123619D01*
X107275285Y-233218857D01*
X107275285Y-233361714D01*
X107227666Y-233456952D01*
X107180047Y-233504571D01*
X107084809Y-233552190D01*
X106703857Y-233552190D01*
X107608619Y-233028380D02*
X108227666Y-233028380D01*
X107894333Y-233409333D01*
X108037190Y-233409333D01*
X108132428Y-233456952D01*
X108180047Y-233504571D01*
X108227666Y-233599809D01*
X108227666Y-233837904D01*
X108180047Y-233933142D01*
X108132428Y-233980761D01*
X108037190Y-234028380D01*
X107751476Y-234028380D01*
X107656238Y-233980761D01*
X107608619Y-233933142D01*
X89783142Y-203461857D02*
X89830761Y-203509476D01*
X89878380Y-203652333D01*
X89878380Y-203747571D01*
X89830761Y-203890428D01*
X89735523Y-203985666D01*
X89640285Y-204033285D01*
X89449809Y-204080904D01*
X89306952Y-204080904D01*
X89116476Y-204033285D01*
X89021238Y-203985666D01*
X88926000Y-203890428D01*
X88878380Y-203747571D01*
X88878380Y-203652333D01*
X88926000Y-203509476D01*
X88973619Y-203461857D01*
X88973619Y-203080904D02*
X88926000Y-203033285D01*
X88878380Y-202938047D01*
X88878380Y-202699952D01*
X88926000Y-202604714D01*
X88973619Y-202557095D01*
X89068857Y-202509476D01*
X89164095Y-202509476D01*
X89306952Y-202557095D01*
X89878380Y-203128523D01*
X89878380Y-202509476D01*
X88878380Y-202176142D02*
X88878380Y-201557095D01*
X89259333Y-201890428D01*
X89259333Y-201747571D01*
X89306952Y-201652333D01*
X89354571Y-201604714D01*
X89449809Y-201557095D01*
X89687904Y-201557095D01*
X89783142Y-201604714D01*
X89830761Y-201652333D01*
X89878380Y-201747571D01*
X89878380Y-202033285D01*
X89830761Y-202128523D01*
X89783142Y-202176142D01*
X82723143Y-209833788D02*
X82675524Y-209881407D01*
X82532667Y-209929026D01*
X82437429Y-209929026D01*
X82294572Y-209881407D01*
X82199334Y-209786169D01*
X82151715Y-209690931D01*
X82104096Y-209500455D01*
X82104096Y-209357598D01*
X82151715Y-209167122D01*
X82199334Y-209071884D01*
X82294572Y-208976646D01*
X82437429Y-208929026D01*
X82532667Y-208929026D01*
X82675524Y-208976646D01*
X82723143Y-209024265D01*
X83104096Y-209024265D02*
X83151715Y-208976646D01*
X83246953Y-208929026D01*
X83485048Y-208929026D01*
X83580286Y-208976646D01*
X83627905Y-209024265D01*
X83675524Y-209119503D01*
X83675524Y-209214741D01*
X83627905Y-209357598D01*
X83056477Y-209929026D01*
X83675524Y-209929026D01*
X84532667Y-209262360D02*
X84532667Y-209929026D01*
X84294572Y-208881407D02*
X84056477Y-209595693D01*
X84675524Y-209595693D01*
M02*
