G04 #@! TF.GenerationSoftware,KiCad,Pcbnew,no-vcs-found-c6d0075~61~ubuntu17.10.1*
G04 #@! TF.CreationDate,2018-02-05T23:49:34+03:00*
G04 #@! TF.ProjectId,tsa5512-pll,747361353531322D706C6C2E6B696361,rev?*
G04 #@! TF.SameCoordinates,Original*
G04 #@! TF.FileFunction,Legend,Bot*
G04 #@! TF.FilePolarity,Positive*
%FSLAX46Y46*%
G04 Gerber Fmt 4.6, Leading zero omitted, Abs format (unit mm)*
G04 Created by KiCad (PCBNEW no-vcs-found-c6d0075~61~ubuntu17.10.1) date Mon Feb  5 23:49:34 2018*
%MOMM*%
%LPD*%
G01*
G04 APERTURE LIST*
%ADD10C,0.120000*%
%ADD11C,0.150000*%
G04 APERTURE END LIST*
D10*
X76006000Y-196409000D02*
X74676000Y-196409000D01*
X76006000Y-197739000D02*
X76006000Y-196409000D01*
X76006000Y-199009000D02*
X73346000Y-199009000D01*
X73346000Y-199009000D02*
X73346000Y-206689000D01*
X76006000Y-199009000D02*
X76006000Y-206689000D01*
X76006000Y-206689000D02*
X73346000Y-206689000D01*
X85531000Y-233874000D02*
X85531000Y-236534000D01*
X77851000Y-233874000D02*
X85531000Y-233874000D01*
X77851000Y-236534000D02*
X85531000Y-236534000D01*
X77851000Y-233874000D02*
X77851000Y-236534000D01*
X76581000Y-233874000D02*
X75251000Y-233874000D01*
X75251000Y-233874000D02*
X75251000Y-235204000D01*
X105851000Y-209864000D02*
X103191000Y-209864000D01*
X105851000Y-202184000D02*
X105851000Y-209864000D01*
X103191000Y-202184000D02*
X103191000Y-209864000D01*
X105851000Y-202184000D02*
X103191000Y-202184000D01*
X105851000Y-200914000D02*
X105851000Y-199584000D01*
X105851000Y-199584000D02*
X104521000Y-199584000D01*
D11*
X75009333Y-194861380D02*
X75009333Y-195575666D01*
X75056952Y-195718523D01*
X75152190Y-195813761D01*
X75295047Y-195861380D01*
X75390285Y-195861380D01*
X74009333Y-195861380D02*
X74580761Y-195861380D01*
X74295047Y-195861380D02*
X74295047Y-194861380D01*
X74390285Y-195004238D01*
X74485523Y-195099476D01*
X74580761Y-195147095D01*
X73703380Y-234870666D02*
X74417666Y-234870666D01*
X74560523Y-234823047D01*
X74655761Y-234727809D01*
X74703380Y-234584952D01*
X74703380Y-234489714D01*
X73798619Y-235299238D02*
X73751000Y-235346857D01*
X73703380Y-235442095D01*
X73703380Y-235680190D01*
X73751000Y-235775428D01*
X73798619Y-235823047D01*
X73893857Y-235870666D01*
X73989095Y-235870666D01*
X74131952Y-235823047D01*
X74703380Y-235251619D01*
X74703380Y-235870666D01*
X104854333Y-198036380D02*
X104854333Y-198750666D01*
X104901952Y-198893523D01*
X104997190Y-198988761D01*
X105140047Y-199036380D01*
X105235285Y-199036380D01*
X104473380Y-198036380D02*
X103854333Y-198036380D01*
X104187666Y-198417333D01*
X104044809Y-198417333D01*
X103949571Y-198464952D01*
X103901952Y-198512571D01*
X103854333Y-198607809D01*
X103854333Y-198845904D01*
X103901952Y-198941142D01*
X103949571Y-198988761D01*
X104044809Y-199036380D01*
X104330523Y-199036380D01*
X104425761Y-198988761D01*
X104473380Y-198941142D01*
M02*
