G04 #@! TF.GenerationSoftware,KiCad,Pcbnew,no-vcs-found-c6d0075~61~ubuntu17.10.1*
G04 #@! TF.CreationDate,2018-02-05T23:49:34+03:00*
G04 #@! TF.ProjectId,tsa5512-pll,747361353531322D706C6C2E6B696361,rev?*
G04 #@! TF.SameCoordinates,Original*
G04 #@! TF.FileFunction,Paste,Top*
G04 #@! TF.FilePolarity,Positive*
%FSLAX46Y46*%
G04 Gerber Fmt 4.6, Leading zero omitted, Abs format (unit mm)*
G04 Created by KiCad (PCBNEW no-vcs-found-c6d0075~61~ubuntu17.10.1) date Mon Feb  5 23:49:34 2018*
%MOMM*%
%LPD*%
G01*
G04 APERTURE LIST*
%ADD10R,1.245000X1.800000*%
%ADD11R,1.800000X1.245000*%
%ADD12R,1.500000X2.200000*%
%ADD13R,0.450000X1.500000*%
%ADD14R,7.000000X1.500000*%
%ADD15R,1.500000X7.000000*%
%ADD16R,10.000000X1.500000*%
%ADD17R,1.500000X0.600000*%
G04 APERTURE END LIST*
D10*
X81397000Y-213360000D03*
X84582000Y-213360000D03*
X139349782Y-231752930D03*
X142534782Y-231752930D03*
D11*
X78105000Y-213487000D03*
X78105000Y-210302000D03*
D10*
X142534782Y-238737930D03*
X139349782Y-238737930D03*
X93101000Y-225044000D03*
X89916000Y-225044000D03*
X93101000Y-221869000D03*
X89916000Y-221869000D03*
X68765500Y-218948000D03*
X71950500Y-218948000D03*
D11*
X91821000Y-228854000D03*
X91821000Y-232039000D03*
X89281000Y-228844000D03*
X89281000Y-232029000D03*
D10*
X113627282Y-231752930D03*
X116812282Y-231752930D03*
X124216000Y-219837000D03*
X121031000Y-219837000D03*
X113401000Y-219837000D03*
X116586000Y-219837000D03*
D11*
X130147282Y-217782930D03*
X130147282Y-220967930D03*
X126746000Y-205623000D03*
X126746000Y-202438000D03*
D10*
X116812282Y-208257930D03*
X113627282Y-208257930D03*
D12*
X142262282Y-224767930D03*
X135862282Y-224767930D03*
D13*
X87346000Y-215519000D03*
X88646000Y-215519000D03*
X87996000Y-212859000D03*
D14*
X113757282Y-224767930D03*
D15*
X120557282Y-231567930D03*
D16*
X128757282Y-224767930D03*
D11*
X88011000Y-210449000D03*
X88011000Y-207264000D03*
D10*
X84201000Y-239649000D03*
X87386000Y-239649000D03*
X78163500Y-239649000D03*
X81348500Y-239649000D03*
X84582000Y-210312000D03*
X81397000Y-210312000D03*
D11*
X136497282Y-234292930D03*
X136497282Y-231107930D03*
X136497282Y-237145430D03*
X136497282Y-240330430D03*
X110871000Y-228567930D03*
X110871000Y-231752930D03*
D10*
X107061000Y-225044000D03*
X103876000Y-225044000D03*
X136271000Y-214884000D03*
X133086000Y-214884000D03*
D11*
X122555000Y-202428000D03*
X122555000Y-205613000D03*
D10*
X116812282Y-212702930D03*
X113627282Y-212702930D03*
D11*
X108966000Y-200904000D03*
X108966000Y-204089000D03*
D17*
X78111000Y-219329000D03*
X78111000Y-220599000D03*
X78111000Y-221869000D03*
X78111000Y-223139000D03*
X78111000Y-224409000D03*
X78111000Y-225679000D03*
X78111000Y-226949000D03*
X78111000Y-228219000D03*
X85211000Y-228219000D03*
X85211000Y-226949000D03*
X85211000Y-225679000D03*
X85211000Y-224409000D03*
X85211000Y-223139000D03*
X85211000Y-221869000D03*
X85211000Y-220599000D03*
X85211000Y-219329000D03*
D11*
X107061000Y-228531500D03*
X107061000Y-231716500D03*
X87376000Y-204411500D03*
X87376000Y-201226500D03*
D10*
X84958501Y-207426646D03*
X81773501Y-207426646D03*
M02*
